<svg version="1.1" id="Layer_1" xmlns="http://www.w3.org/2000/svg" xmlns:xlink="http://www.w3.org/1999/xlink" x="0px" y="0px"
	 width="100%" viewBox="0 0 2140 600" enable-background="new 0 0 2140 600" xml:space="preserve">
<path fill="#FFFFFF" opacity="1.000000" stroke="none" 
	d="
M1527.000000,601.000000 
	C1018.046326,601.000000 509.592621,601.000000 1.069468,601.000000 
	C1.069468,401.064545 1.069468,201.129059 1.069468,1.096791 
	C714.333313,1.096791 1427.666626,1.096791 2140.971680,1.096791 
	C2140.971680,201.074310 2140.971680,401.037170 2140.971680,601.000000 
	C1936.462036,601.000000 1731.981079,601.000000 1527.000000,601.000000 
M525.794556,260.400269 
	C525.662354,260.084442 525.530151,259.768585 525.374451,258.612854 
	C524.819031,254.104645 524.263611,249.596420 524.637573,245.017868 
	C536.247925,246.944809 548.032349,248.163681 559.427979,250.964325 
	C576.599060,255.184341 591.769775,241.713684 587.912537,224.663727 
	C585.625977,214.556625 578.261841,209.775497 568.794128,207.114731 
	C547.852173,201.229294 526.561646,199.775177 504.535187,200.838745 
	C495.245575,186.734543 483.619476,174.871933 469.248108,166.053360 
	C426.991669,140.123901 384.682831,114.274864 342.141022,88.817986 
	C326.437164,79.420845 309.348114,74.905853 290.968903,80.063316 
	C278.618530,83.528999 269.321289,91.048691 262.513031,102.294716 
	C272.745728,108.189034 282.506592,113.811546 292.517303,119.577972 
	C299.088501,111.214241 307.318420,111.887199 315.745636,115.038658 
	C320.077423,116.658592 324.301086,118.755203 328.261078,121.152626 
	C365.549072,143.727234 402.766174,166.418930 440.011841,189.063553 
	C450.257660,195.292831 460.599731,201.388962 467.698914,211.561584 
	C453.195404,218.000946 440.760620,227.353439 429.205627,238.048767 
	C420.274048,226.689102 409.820496,216.967117 397.427887,209.521545 
	C356.226257,184.767334 314.996460,160.058945 273.670868,135.512512 
	C258.298798,126.381844 241.691254,121.185783 223.690872,124.543983 
	C199.208237,129.111526 181.397675,151.053406 181.159592,177.908218 
	C180.716797,227.853867 181.088501,277.806732 180.623703,328.243439 
	C168.064911,340.174866 158.462830,354.282471 150.368195,369.482513 
	C139.076767,390.685455 130.640610,413.021973 124.400620,436.180542 
	C120.676109,450.003418 129.298248,462.568878 143.423187,464.438263 
	C154.592773,465.916534 164.290009,458.431396 167.848328,445.602417 
	C173.418121,425.521271 181.117599,406.298920 191.670731,388.407166 
	C193.713608,392.362427 195.756485,396.317719 197.917984,400.961365 
	C209.425110,421.906464 225.659897,438.201904 246.334900,450.107300 
	C269.680939,463.550690 293.038177,476.974670 316.405884,490.380341 
	C339.196960,503.455200 361.662018,517.151733 384.893555,529.392334 
	C416.552216,546.073242 454.986420,522.271606 454.997101,486.654999 
	C455.014771,427.857269 455.013519,369.059570 454.969452,310.261871 
	C454.967102,307.134979 454.494293,304.008392 454.533203,300.022369 
	C453.390747,293.951355 452.248291,287.880341 451.503204,281.308350 
	C461.661377,268.385376 472.946045,256.857666 488.980103,251.949905 
	C489.707367,257.635132 490.434631,263.320343 491.020416,269.932587 
	C491.012451,328.062317 491.005096,386.192047 490.995972,444.321777 
	C490.994202,455.582428 488.165710,459.387299 477.154999,462.664307 
	C477.154999,468.226898 477.154999,473.876434 477.154999,479.526001 
	C477.154999,485.282959 477.154999,491.039917 477.154999,496.739227 
	C503.360382,497.820496 525.808167,475.196594 525.829895,448.269440 
	C525.878296,388.140961 525.847656,328.012451 525.831238,267.883942 
	C525.830811,266.229889 525.625916,264.575867 525.720764,262.264587 
	C525.689453,261.810455 525.658142,261.356354 525.794556,260.400269 
M1836.962524,396.012604 
	C1853.957886,396.061615 1870.953979,396.043976 1887.947998,396.216583 
	C1891.298828,396.250641 1892.326172,394.972076 1892.205566,391.805145 
	C1892.028076,387.145691 1892.162720,382.474457 1892.160156,377.808228 
	C1892.156372,370.857361 1892.155029,370.857391 1885.403198,370.839264 
	C1878.569458,370.820923 1878.611206,370.820557 1878.553589,363.891296 
	C1878.401123,345.568695 1878.656006,327.228180 1877.910889,308.928925 
	C1877.119873,289.501892 1864.123657,276.948730 1845.073486,276.187897 
	C1831.352295,275.639893 1819.191895,279.845123 1808.663208,288.709778 
	C1807.241455,289.906952 1805.720703,290.986328 1803.357910,292.802856 
	C1803.192383,289.758118 1803.020264,287.990906 1803.012207,286.222931 
	C1802.938965,270.059723 1802.741699,253.894531 1802.940063,237.734329 
	C1802.994995,233.251938 1801.938843,231.524368 1797.147827,231.732300 
	C1788.498413,232.107666 1779.820801,231.833267 1771.155029,231.831100 
	C1766.915283,231.830032 1762.675537,231.830902 1757.999756,231.830902 
	C1757.999756,238.656830 1757.997192,244.622223 1758.000366,250.587616 
	C1758.003906,257.138245 1758.006226,257.138245 1764.560059,257.160767 
	C1771.424561,257.184357 1771.435547,257.184357 1771.436523,264.158203 
	C1771.440796,296.488434 1771.438232,328.818665 1771.438232,361.148895 
	C1771.438232,370.327454 1771.442261,370.424896 1762.321899,370.793976 
	C1759.220215,370.919525 1757.816040,371.861267 1757.941650,375.198975 
	C1758.154541,380.857117 1758.072388,386.530334 1757.969116,392.194580 
	C1757.920654,394.851074 1758.746338,396.197510 1761.645874,396.186432 
	C1778.310669,396.122833 1794.976074,396.121979 1811.640869,396.190155 
	C1814.247925,396.200836 1815.212769,395.151550 1815.175903,392.635651 
	C1815.100098,387.470642 1814.824951,382.275787 1815.254517,377.145386 
	C1815.685059,372.002686 1813.837891,370.044464 1808.796265,370.825043 
	C1804.411743,371.503876 1803.019287,369.529053 1803.075928,365.167358 
	C1803.253540,351.506683 1803.031006,337.841187 1803.006348,324.177490 
	C1802.979370,309.237885 1804.151367,307.696259 1818.594971,303.431732 
	C1819.867432,303.056061 1821.182495,302.819580 1822.484375,302.549957 
	C1837.654053,299.408142 1846.938599,306.850677 1846.989868,322.267029 
	C1847.036377,336.265533 1847.002319,350.264313 1846.998657,364.262970 
	C1846.997070,370.713959 1846.984863,370.584045 1840.328857,370.929047 
	C1838.620361,371.017578 1835.520996,372.192444 1835.513672,372.894592 
	C1835.432251,380.472137 1835.841797,388.054962 1836.962524,396.012604 
M1511.843750,372.500397 
	C1511.753052,366.839447 1511.875732,361.160797 1511.407837,355.531158 
	C1511.302856,354.267273 1509.186768,352.236694 1507.904419,352.163177 
	C1501.758789,351.810852 1495.569824,351.810455 1489.425293,352.174500 
	C1488.142578,352.250458 1486.184814,354.244934 1485.925659,355.617249 
	C1485.315674,358.848267 1485.335327,362.247070 1485.489502,365.559875 
	C1485.647705,368.956299 1484.050659,370.549347 1480.947632,370.844788 
	C1472.340576,371.664185 1463.728271,372.977600 1455.111572,373.030426 
	C1437.798340,373.136505 1425.488525,364.282623 1420.124756,347.847992 
	C1413.547852,327.696533 1413.312012,307.164520 1419.191528,286.855438 
	C1424.491455,268.548187 1436.734253,259.826294 1455.793579,259.906555 
	C1462.768188,259.935913 1469.769653,260.399719 1476.705444,261.154785 
	C1485.266968,262.086823 1485.251221,262.307159 1485.443359,270.817566 
	C1485.484497,272.642761 1485.493774,274.471741 1485.426758,276.295624 
	C1485.314697,279.357513 1486.505859,280.943970 1489.803711,280.874664 
	C1495.467163,280.755676 1501.135864,280.786560 1506.800903,280.864685 
	C1509.987183,280.908630 1511.757935,279.887482 1511.713989,276.307495 
	C1511.593872,266.482819 1511.597900,256.654907 1511.708862,246.830063 
	C1511.746948,243.467621 1509.979126,242.272263 1507.064331,241.468292 
	C1483.902588,235.079544 1460.463989,232.098145 1436.440063,234.998444 
	C1410.240356,238.161407 1391.746460,253.416656 1384.858398,279.017212 
	C1378.292480,303.420654 1378.274780,328.053070 1384.942505,352.534210 
	C1391.387817,376.198517 1406.434204,391.268066 1430.538086,396.342651 
	C1456.951538,401.903503 1482.862671,397.613800 1508.436523,390.697266 
	C1509.971069,390.282227 1511.386108,387.037354 1511.679688,384.944153 
	C1512.205566,381.195282 1511.835083,377.320679 1511.843750,372.500397 
M687.540344,376.437256 
	C687.540344,339.124908 687.540344,301.812561 687.540344,264.500214 
	C689.207947,265.519135 689.767761,266.657379 690.285706,267.814362 
	C708.595215,308.712860 726.920654,349.604187 745.170349,390.529358 
	C746.681458,393.917877 748.203735,396.541962 752.589355,396.633392 
	C757.174805,396.729004 758.461914,393.721924 759.903503,390.445068 
	C777.612549,350.191437 795.338379,309.945190 813.075928,269.704132 
	C814.009888,267.585358 815.088745,265.530457 816.100159,263.445801 
	C816.994751,300.515808 817.019836,337.170074 816.982056,373.824280 
	C816.967468,387.933258 818.437866,385.954437 805.260620,385.931213 
	C801.418823,385.924438 799.357666,386.773804 799.369995,391.148163 
	C799.381775,395.350647 801.228882,396.615479 805.108704,396.579926 
	C817.104919,396.469910 829.105286,396.401367 841.098816,396.613617 
	C845.464478,396.690857 847.511108,395.290863 847.592468,390.755157 
	C847.677490,386.017853 844.848816,385.776245 841.360779,386.005341 
	C839.868225,386.103394 838.362732,385.999695 836.863159,385.995636 
	C829.900146,385.976837 829.866821,385.977844 829.864990,379.120941 
	C829.853821,338.463593 829.816101,297.806183 829.886719,257.148956 
	C829.906921,245.510529 828.352173,247.038681 840.347778,246.860886 
	C841.180786,246.848541 842.014587,246.834793 842.847046,246.857208 
	C847.733582,246.988724 847.220703,243.215012 847.468384,240.224731 
	C847.737122,236.980255 845.803833,235.950027 842.756348,235.991180 
	C835.092834,236.094681 827.423706,236.158417 819.763611,235.966812 
	C816.099426,235.875153 814.086853,237.156082 812.573547,240.624603 
	C798.107239,273.780670 783.475464,306.864563 768.871948,339.960724 
	C763.882568,351.268341 758.838623,362.551941 753.318176,374.974976 
	C750.550781,368.961823 748.243347,364.045044 746.015686,359.092346 
	C728.383667,319.891846 710.726379,280.702545 693.208618,241.451050 
	C691.480652,237.579361 689.225647,235.788773 684.888489,235.951752 
	C677.733582,236.220673 670.552795,236.232483 663.399353,235.944687 
	C659.342896,235.781509 657.539185,237.256943 657.498596,241.234802 
	C657.456543,245.347275 659.084412,247.496689 663.505249,246.891312 
	C664.977295,246.689743 666.500366,246.848953 667.999878,246.862091 
	C674.886902,246.922485 674.990662,247.010544 674.991699,253.854401 
	C674.997803,293.678589 674.994751,333.502808 674.994751,373.326996 
	C674.994751,385.757568 674.995056,385.907745 662.712524,385.934814 
	C658.955811,385.943115 657.553284,387.481476 657.498901,390.853302 
	C657.440918,394.446381 658.440186,396.705963 662.870239,396.620239 
	C675.029541,396.384888 687.196838,396.481628 699.360046,396.575226 
	C703.027832,396.603424 705.305603,395.932159 705.260681,391.417664 
	C705.216614,387.002655 703.544983,385.470123 699.290344,385.945068 
	C696.821777,386.220673 694.290466,385.878693 691.799377,386.022614 
	C688.783325,386.196899 687.499084,384.812042 687.544067,381.913544 
	C687.567322,380.414307 687.542725,378.914307 687.540344,376.437256 
M1551.671753,397.976929 
	C1567.562500,400.640900 1581.487427,396.096008 1594.025391,385.578796 
	C1594.421875,389.502777 1594.733643,392.589752 1595.090942,396.125610 
	C1609.424683,396.125610 1623.388916,396.212036 1637.346069,395.936920 
	C1638.307495,395.917969 1639.916016,393.247589 1640.018066,391.729248 
	C1640.329346,387.093567 1640.040039,382.418396 1640.005493,377.758392 
	C1639.954346,370.862457 1639.962036,370.862366 1633.299805,370.836487 
	C1626.012085,370.808167 1626.005493,370.808167 1626.003784,363.746948 
	C1625.999268,346.252167 1626.137329,328.756012 1625.964355,311.262939 
	C1625.776001,292.222321 1616.901855,281.323151 1598.281860,277.839325 
	C1576.099365,273.689026 1554.178101,277.321960 1532.355713,281.221893 
	C1531.188721,281.430481 1529.616943,283.764069 1529.573608,285.150330 
	C1529.313354,293.472931 1529.459473,301.807892 1529.439087,310.138611 
	C1529.430908,313.431793 1530.887695,314.977844 1534.305542,314.878418 
	C1539.133301,314.737915 1543.968262,314.851288 1548.800171,314.842346 
	C1555.289673,314.830353 1555.569092,314.713501 1555.496826,308.094177 
	C1555.459229,304.641418 1556.378174,302.633789 1560.125366,302.678467 
	C1567.585083,302.767303 1575.092041,302.364319 1582.482666,303.116486 
	C1585.634888,303.437347 1589.098633,305.582245 1591.443970,307.890778 
	C1595.833252,312.211426 1595.060425,318.267212 1593.714844,323.417206 
	C1593.352173,324.805237 1587.680176,325.137787 1584.403687,325.370667 
	C1574.457764,326.077606 1564.357910,325.665710 1554.566284,327.236969 
	C1541.657104,329.308472 1530.296387,334.822021 1524.928711,348.038086 
	C1515.753418,370.630035 1526.884888,391.932434 1551.671753,397.976929 
M1950.972412,276.429688 
	C1949.155029,276.654236 1947.333984,276.852051 1945.520996,277.107330 
	C1918.815186,280.867493 1904.276245,294.321655 1899.939209,320.996185 
	C1898.359863,330.710297 1898.282593,340.940460 1899.301880,350.750000 
	C1901.590698,372.778564 1912.170166,389.109314 1934.681519,395.255249 
	C1957.623779,401.518768 1980.527954,399.222687 2003.252319,393.742432 
	C2004.433594,393.457581 2005.916626,390.799316 2005.793457,389.372528 
	C2005.322876,383.918365 2004.066406,378.536377 2003.467651,373.087402 
	C2003.026855,369.075653 2001.272705,369.133240 1997.753174,369.562958 
	C1985.573853,371.049805 1973.317383,372.779358 1961.090576,372.778198 
	C1946.539795,372.776855 1935.955444,363.984100 1933.036377,351.641418 
	C1931.392334,344.689728 1931.789429,344.169342 1938.881958,344.167236 
	C1960.534668,344.160736 1982.189209,344.016968 2003.838745,344.279999 
	C2008.609131,344.337952 2010.507324,342.771637 2010.514893,338.194763 
	C2010.528442,330.041168 2011.240356,321.844330 2010.631104,313.743011 
	C2009.198730,294.699921 1997.916870,281.745331 1979.152100,278.260956 
	C1970.250366,276.608032 1960.988159,276.897339 1950.972412,276.429688 
M1646.927734,324.440765 
	C1646.980713,333.734741 1646.221436,343.119110 1647.243286,352.305298 
	C1649.989380,376.991791 1663.554443,391.862610 1687.019043,396.727264 
	C1707.012817,400.872375 1726.775024,398.581329 1746.400757,393.952179 
	C1749.360718,393.254028 1749.973999,391.706299 1749.215576,388.833160 
	C1747.858521,383.692719 1746.742432,378.479340 1745.760620,373.252289 
	C1745.044189,369.438049 1743.291016,368.783508 1739.463501,369.346741 
	C1728.635620,370.940186 1717.726807,372.690643 1706.823486,372.882782 
	C1693.515259,373.117249 1684.171753,365.528290 1681.564941,352.439117 
	C1679.966553,344.413330 1679.441528,335.806580 1680.440308,327.708099 
	C1682.444458,311.459229 1690.920044,303.287659 1705.010742,302.132751 
	C1708.811279,301.821228 1712.676880,301.908508 1716.486084,302.182068 
	C1723.722900,302.701752 1723.888428,302.811768 1723.920654,310.127075 
	C1723.936035,313.591675 1725.149170,314.955872 1728.573608,314.877930 
	C1734.237427,314.749023 1739.906616,314.789459 1745.572388,314.859436 
	C1748.648682,314.897461 1750.112793,313.777557 1750.050903,310.452087 
	C1749.898926,302.288361 1749.929199,294.118835 1750.040405,285.953796 
	C1750.081543,282.933594 1748.921265,281.547913 1745.919434,280.826599 
	C1731.749756,277.421936 1717.416016,275.509491 1702.852417,276.224457 
	C1692.180420,276.748352 1681.576294,278.198669 1671.940308,283.274414 
	C1655.785034,291.784149 1649.337524,306.429718 1646.927734,324.440765 
M1085.021851,325.506866 
	C1085.021851,341.665955 1085.021851,357.825043 1085.021851,373.984131 
	C1085.021851,385.726013 1085.022583,385.872101 1073.399902,385.933990 
	C1069.472290,385.954926 1068.013916,387.450317 1067.985718,391.194916 
	C1067.957886,394.911102 1069.318481,396.648346 1073.285522,396.599152 
	C1085.278076,396.450409 1097.274048,396.479889 1109.267700,396.579437 
	C1113.345947,396.613251 1115.187744,395.374451 1115.156494,390.815918 
	C1115.123413,385.979797 1112.530029,385.809296 1109.057373,386.005981 
	C1107.563477,386.090576 1106.059814,386.002106 1104.560669,385.993073 
	C1097.889893,385.952881 1097.869629,385.953003 1097.866821,379.469727 
	C1097.857178,356.980316 1097.982666,334.490112 1097.829468,312.001740 
	C1097.672974,289.055481 1084.568848,276.126862 1061.840576,275.976440 
	C1045.943726,275.871216 1032.503662,282.149109 1020.212708,291.584442 
	C1019.013123,292.505310 1017.745483,293.337677 1015.545349,294.892426 
	C1015.545349,290.441376 1015.438477,287.298431 1015.571777,284.165680 
	C1015.747009,280.048492 1014.172180,277.974487 1009.786743,278.095306 
	C1003.627625,278.264954 997.458069,278.241455 991.297424,278.102814 
	C987.049622,278.007233 985.467346,279.843079 985.358704,284.072388 
	C985.239746,288.700073 987.642212,289.328674 991.309143,289.002960 
	C992.961975,288.856140 994.664917,289.168091 996.299561,288.942169 
	C1000.949219,288.299652 1002.265503,290.210693 1002.232544,294.813629 
	C1002.038330,321.966125 1002.163940,349.120728 1002.123779,376.274536 
	C1002.107544,387.253998 1003.375916,385.899078 992.679382,385.992218 
	C991.513367,386.002380 990.347290,386.013428 989.181274,386.024567 
	C985.033447,386.064148 985.723083,389.314056 985.505005,391.784058 
	C985.283020,394.299347 985.809021,396.501373 989.103577,396.500702 
	C1002.096863,396.498138 1015.092712,396.631165 1028.079712,396.349915 
	C1029.404785,396.321228 1031.592163,393.984741 1031.811890,392.488922 
	C1032.660400,386.712585 1031.801270,386.026947 1025.726685,385.993896 
	C1024.227417,385.985748 1022.702942,385.815674 1021.233459,386.024811 
	C1016.716187,386.667664 1015.483582,384.470642 1015.500244,380.330933 
	C1015.596863,356.342621 1015.508423,332.353546 1015.626587,308.365417 
	C1015.635559,306.540833 1016.193115,303.988647 1017.453918,303.013123 
	C1030.624023,292.822876 1044.914917,285.346832 1062.296265,287.086334 
	C1074.373169,288.294952 1082.371216,296.038025 1084.038330,308.130157 
	C1084.783325,313.532867 1084.718872,319.047180 1085.021851,325.506866 
M1366.616699,280.184753 
	C1365.040405,279.501953 1363.472412,278.250641 1361.886353,278.227325 
	C1350.393433,278.058228 1338.896606,278.195709 1327.401978,278.106506 
	C1323.203125,278.073944 1321.964844,280.176056 1321.981567,284.036682 
	C1321.999023,288.048889 1323.881226,289.204376 1327.597900,289.031708 
	C1332.296753,288.813416 1337.013550,288.979034 1342.572754,288.979034 
	C1330.346558,321.697083 1318.589966,353.159027 1306.336792,385.949524 
	C1292.745972,353.056244 1279.751709,321.606323 1266.270752,288.978851 
	C1272.467651,288.978851 1277.413818,288.705109 1282.314209,289.060394 
	C1286.699585,289.378326 1287.426880,286.720764 1287.430054,283.556671 
	C1287.432861,280.572906 1286.669922,278.041840 1282.626099,278.086853 
	C1270.132690,278.225922 1257.636719,278.173492 1245.141968,278.122772 
	C1240.827881,278.105286 1239.960938,280.547089 1239.956665,284.271667 
	C1239.952393,288.159454 1241.940918,289.387878 1245.299683,288.942932 
	C1250.651001,288.234070 1253.073486,291.232880 1254.916138,295.645142 
	C1267.320190,325.345978 1279.014526,355.384796 1292.673706,384.500153 
	C1298.434326,396.778839 1296.824829,406.228302 1290.437012,416.757782 
	C1282.717896,429.481812 1272.856201,437.516998 1256.972656,434.580597 
	C1253.578857,433.953278 1252.463623,435.973785 1252.184570,438.771484 
	C1251.920532,441.420746 1251.420776,444.259247 1255.271729,444.983826 
	C1270.419067,447.834076 1283.645508,444.658752 1294.137939,432.746460 
	C1301.972656,423.851501 1306.533569,413.159424 1310.831421,402.328888 
	C1325.204956,366.107483 1339.583618,329.887939 1353.879639,293.635895 
	C1355.032959,290.711212 1356.375488,288.926697 1359.904419,288.905487 
	C1367.150024,288.862000 1367.148926,288.687988 1366.616699,280.184753 
M1224.161255,394.917542 
	C1229.439331,393.740021 1227.364014,389.891907 1226.804077,386.935760 
	C1226.114624,383.294342 1223.445557,384.605927 1220.900024,384.855103 
	C1208.541992,386.064758 1196.149780,387.860260 1183.780518,387.780182 
	C1168.408813,387.680634 1155.460571,381.599243 1148.622070,366.809052 
	C1146.161743,361.487976 1144.928589,355.504120 1143.772217,349.695953 
	C1141.524658,338.406647 1142.015869,338.007324 1153.583984,338.006805 
	C1177.230957,338.005768 1200.878052,337.959961 1224.524536,338.059326 
	C1227.853394,338.073303 1229.973389,337.495636 1230.069214,333.603149 
	C1230.256226,326.003296 1231.362183,318.356354 1230.810913,310.822357 
	C1229.602783,294.316315 1218.148315,281.852264 1202.002686,277.926910 
	C1191.809326,275.448730 1181.589722,275.296173 1171.361450,277.116089 
	C1151.790039,280.598480 1138.631836,291.548798 1132.863281,310.877014 
	C1128.148560,326.673676 1127.960815,342.674530 1131.325928,358.651703 
	C1135.778809,379.794006 1148.637451,392.813080 1170.031860,397.130280 
	C1187.993530,400.754791 1205.713013,398.862274 1224.161255,394.917542 
M864.000732,331.603455 
	C864.683289,341.025665 864.445618,350.627594 866.243225,359.832031 
	C869.795959,378.023682 879.597534,391.742432 898.492065,396.478149 
	C905.633057,398.267975 913.281921,398.917664 920.660400,398.709808 
	C943.884766,398.055542 959.996033,384.925995 965.761230,362.911957 
	C969.312622,349.351105 968.930237,335.490906 967.558350,321.853638 
	C966.212769,308.477020 961.675781,295.847321 950.687988,286.855530 
	C937.034119,275.681885 921.075806,274.507080 904.476562,277.006989 
	C886.789429,279.670715 874.559326,289.537415 868.830688,306.374939 
	C866.197998,314.113007 865.559143,322.529449 864.000732,331.603455 
z"/>
<path fill="#6CBD4A" opacity="1.000000" stroke="none" 
	d="
M191.106323,388.001465 
	C181.117599,406.298920 173.418121,425.521271 167.848328,445.602417 
	C164.290009,458.431396 154.592773,465.916534 143.423187,464.438263 
	C129.298248,462.568878 120.676109,450.003418 124.400620,436.180542 
	C130.640610,413.021973 139.076767,390.685455 150.368195,369.482513 
	C158.462830,354.282471 168.064911,340.174866 181.158691,327.879578 
	C191.720459,318.104462 203.455734,312.046844 217.463501,309.549683 
	C230.770554,307.997131 242.704636,310.926941 254.324799,317.020691 
	C262.161255,323.698334 270.016998,329.869751 277.176636,336.764038 
	C283.632202,342.980347 289.099365,350.212616 295.419525,356.583069 
	C301.579834,362.792358 308.543152,367.902191 318.462402,367.471527 
	C329.095978,366.895477 336.643219,361.159729 343.396393,354.339386 
	C369.066284,328.413910 385.711212,295.975464 406.732910,266.300964 
	C414.554596,256.929596 422.104828,247.753662 429.655029,238.577728 
	C440.760620,227.353439 453.195404,218.000946 468.295990,211.261078 
	C480.919312,207.775070 492.945587,204.589584 504.971832,201.404114 
	C526.561646,199.775177 547.852173,201.229294 568.794128,207.114731 
	C578.261841,209.775497 585.625977,214.556625 587.912537,224.663727 
	C591.769775,241.713684 576.599060,255.184341 559.427979,250.964325 
	C548.032349,248.163681 536.247925,246.944809 523.732483,245.038818 
	C511.117981,244.833298 499.724457,246.376678 488.901062,251.114700 
	C472.946045,256.857666 461.661377,268.385376 451.028076,281.771179 
	C440.309631,297.250092 430.066315,312.266174 419.563324,327.455261 
	C415.434296,333.447510 411.643036,339.320526 407.681244,345.076141 
	C394.723114,363.901611 381.228851,382.266693 362.447388,396.379333 
	C349.665161,405.777039 335.658661,411.012604 319.662170,412.062134 
	C299.851074,412.203583 283.010864,405.469910 269.030884,392.399261 
	C259.840088,383.806274 251.732849,374.063751 242.939026,365.032043 
	C239.609039,361.611969 235.982254,358.330872 232.002731,355.734436 
	C227.819977,353.005432 223.063431,352.203491 218.268311,355.822632 
	C215.867920,357.186066 213.237381,358.046448 211.847809,359.858521 
	C204.757629,369.104248 197.988037,378.595856 191.106323,388.001465 
z"/>
<path fill="#34A2D9" opacity="1.000000" stroke="none" 
	d="
M429.430328,238.313248 
	C422.104828,247.753662 414.554596,256.929596 406.505005,265.970154 
	C398.170135,253.483521 387.660980,244.041183 375.087067,236.629974 
	C349.129333,221.330170 323.308533,205.798126 297.421997,190.377457 
	C294.473145,188.620834 291.464081,186.965240 287.860657,184.907425 
	C287.860657,187.452011 287.860657,189.242188 287.860657,191.032379 
	C287.860657,225.193481 288.198517,259.358948 287.757446,293.514343 
	C287.381409,322.631561 297.242462,347.195526 318.029877,367.468842 
	C308.543152,367.902191 301.579834,362.792358 295.419525,356.583069 
	C289.099365,350.212616 283.632202,342.980347 277.176636,336.764038 
	C270.016998,329.869751 262.161255,323.698334 254.315704,316.592346 
	C253.634171,307.503387 252.934296,299.035217 252.909744,290.565033 
	C252.791962,249.937195 252.875336,209.308823 252.796265,168.680801 
	C252.792725,166.859863 252.512039,164.298218 251.334717,163.333939 
	C237.518265,152.017746 220.610001,157.815384 216.654266,175.093735 
	C216.213287,177.019958 216.018509,179.043701 216.014771,181.022797 
	C215.936188,222.482285 215.890656,263.941833 215.906448,305.401367 
	C215.906967,306.778229 216.616516,308.154816 216.995575,309.531525 
	C203.455734,312.046844 191.720459,318.104462 181.407410,327.636169 
	C181.088501,277.806732 180.716797,227.853867 181.159592,177.908218 
	C181.397675,151.053406 199.208237,129.111526 223.690872,124.543983 
	C241.691254,121.185783 258.298798,126.381844 273.670868,135.512512 
	C314.996460,160.058945 356.226257,184.767334 397.427887,209.521545 
	C409.820496,216.967117 420.274048,226.689102 429.430328,238.313248 
z"/>
<path fill="#176CB3" opacity="1.000000" stroke="none" 
	d="
M454.240509,300.881714 
	C454.494293,304.008392 454.967102,307.134979 454.969452,310.261871 
	C455.013519,369.059570 455.014771,427.857269 454.997101,486.654999 
	C454.986420,522.271606 416.552216,546.073242 384.893555,529.392334 
	C361.662018,517.151733 339.196960,503.455200 316.405884,490.380341 
	C293.038177,476.974670 269.680939,463.550690 246.334900,450.107300 
	C225.659897,438.201904 209.425110,421.906464 198.014343,400.287476 
	C204.756454,388.984131 211.322037,378.283234 222.913422,372.290619 
	C231.584183,394.026672 246.028961,410.087860 266.092224,421.422729 
	C292.457550,436.317932 318.605530,451.597626 344.855042,466.698029 
	C362.884338,477.069611 380.897919,487.469055 398.976624,497.753876 
	C407.839081,502.795624 418.615906,498.218475 419.750427,488.648987 
	C420.429810,482.918488 421.145721,476.539917 419.268097,471.392792 
	C418.058105,468.075867 412.181732,466.452667 408.382111,464.093903 
	C407.110687,463.304565 405.786865,462.600128 404.499054,461.836578 
	C384.331024,449.878876 364.164948,437.917877 344.230774,425.694641 
	C356.570740,420.929962 367.327301,414.355072 376.471985,404.890045 
	C391.036133,413.353546 405.264771,421.718781 420.163330,430.477875 
	C420.163330,402.617432 420.163330,375.827545 420.444092,348.859039 
	C421.133850,348.164246 421.571198,347.667908 421.947693,347.129028 
	C432.715698,331.715851 443.477600,316.298431 454.240509,300.881714 
z"/>
<path fill="#176BB3" opacity="1.000000" stroke="none" 
	d="
M1836.539795,395.824463 
	C1835.841797,388.054962 1835.432251,380.472137 1835.513672,372.894592 
	C1835.520996,372.192444 1838.620361,371.017578 1840.328857,370.929047 
	C1846.984863,370.584045 1846.997070,370.713959 1846.998657,364.262970 
	C1847.002319,350.264313 1847.036377,336.265533 1846.989868,322.267029 
	C1846.938599,306.850677 1837.654053,299.408142 1822.484375,302.549957 
	C1821.182495,302.819580 1819.867432,303.056061 1818.594971,303.431732 
	C1804.151367,307.696259 1802.979370,309.237885 1803.006348,324.177490 
	C1803.031006,337.841187 1803.253540,351.506683 1803.075928,365.167358 
	C1803.019287,369.529053 1804.411743,371.503876 1808.796265,370.825043 
	C1813.837891,370.044464 1815.685059,372.002686 1815.254517,377.145386 
	C1814.824951,382.275787 1815.100098,387.470642 1815.175903,392.635651 
	C1815.212769,395.151550 1814.247925,396.200836 1811.640869,396.190155 
	C1794.976074,396.121979 1778.310669,396.122833 1761.645874,396.186432 
	C1758.746338,396.197510 1757.920654,394.851074 1757.969116,392.194580 
	C1758.072388,386.530334 1758.154541,380.857117 1757.941650,375.198975 
	C1757.816040,371.861267 1759.220215,370.919525 1762.321899,370.793976 
	C1771.442261,370.424896 1771.438232,370.327454 1771.438232,361.148895 
	C1771.438232,328.818665 1771.440796,296.488434 1771.436523,264.158203 
	C1771.435547,257.184357 1771.424561,257.184357 1764.560059,257.160767 
	C1758.006226,257.138245 1758.003906,257.138245 1758.000366,250.587616 
	C1757.997192,244.622223 1757.999756,238.656830 1757.999756,231.830902 
	C1762.675537,231.830902 1766.915283,231.830032 1771.155029,231.831100 
	C1779.820801,231.833267 1788.498413,232.107666 1797.147827,231.732300 
	C1801.938843,231.524368 1802.994995,233.251938 1802.940063,237.734329 
	C1802.741699,253.894531 1802.938965,270.059723 1803.012207,286.222931 
	C1803.020264,287.990906 1803.192383,289.758118 1803.357910,292.802856 
	C1805.720703,290.986328 1807.241455,289.906952 1808.663208,288.709778 
	C1819.191895,279.845123 1831.352295,275.639893 1845.073486,276.187897 
	C1864.123657,276.948730 1877.119873,289.501892 1877.910889,308.928925 
	C1878.656006,327.228180 1878.401123,345.568695 1878.553589,363.891296 
	C1878.611206,370.820557 1878.569458,370.820923 1885.403198,370.839264 
	C1892.155029,370.857391 1892.156372,370.857361 1892.160156,377.808228 
	C1892.162720,382.474457 1892.028076,387.145691 1892.205566,391.805145 
	C1892.326172,394.972076 1891.298828,396.250641 1887.947998,396.216583 
	C1870.953979,396.043976 1853.957886,396.061615 1836.539795,395.824463 
z"/>
<path fill="#186CB4" opacity="1.000000" stroke="none" 
	d="
M1511.841431,372.999512 
	C1511.835083,377.320679 1512.205566,381.195282 1511.679688,384.944153 
	C1511.386108,387.037354 1509.971069,390.282227 1508.436523,390.697266 
	C1482.862671,397.613800 1456.951538,401.903503 1430.538086,396.342651 
	C1406.434204,391.268066 1391.387817,376.198517 1384.942505,352.534210 
	C1378.274780,328.053070 1378.292480,303.420654 1384.858398,279.017212 
	C1391.746460,253.416656 1410.240356,238.161407 1436.440063,234.998444 
	C1460.463989,232.098145 1483.902588,235.079544 1507.064331,241.468292 
	C1509.979126,242.272263 1511.746948,243.467621 1511.708862,246.830063 
	C1511.597900,256.654907 1511.593872,266.482819 1511.713989,276.307495 
	C1511.757935,279.887482 1509.987183,280.908630 1506.800903,280.864685 
	C1501.135864,280.786560 1495.467163,280.755676 1489.803711,280.874664 
	C1486.505859,280.943970 1485.314697,279.357513 1485.426758,276.295624 
	C1485.493774,274.471741 1485.484497,272.642761 1485.443359,270.817566 
	C1485.251221,262.307159 1485.266968,262.086823 1476.705444,261.154785 
	C1469.769653,260.399719 1462.768188,259.935913 1455.793579,259.906555 
	C1436.734253,259.826294 1424.491455,268.548187 1419.191528,286.855438 
	C1413.312012,307.164520 1413.547852,327.696533 1420.124756,347.847992 
	C1425.488525,364.282623 1437.798340,373.136505 1455.111572,373.030426 
	C1463.728271,372.977600 1472.340576,371.664185 1480.947632,370.844788 
	C1484.050659,370.549347 1485.647705,368.956299 1485.489502,365.559875 
	C1485.335327,362.247070 1485.315674,358.848267 1485.925659,355.617249 
	C1486.184814,354.244934 1488.142578,352.250458 1489.425293,352.174500 
	C1495.569824,351.810455 1501.758789,351.810852 1507.904419,352.163177 
	C1509.186768,352.236694 1511.302856,354.267273 1511.407837,355.531158 
	C1511.875732,361.160797 1511.753052,366.839447 1511.841431,372.999512 
z"/>
<path fill="#6EBE4B" opacity="1.000000" stroke="none" 
	d="
M687.540039,376.925964 
	C687.542725,378.914307 687.567322,380.414307 687.544067,381.913544 
	C687.499084,384.812042 688.783325,386.196899 691.799377,386.022614 
	C694.290466,385.878693 696.821777,386.220673 699.290344,385.945068 
	C703.544983,385.470123 705.216614,387.002655 705.260681,391.417664 
	C705.305603,395.932159 703.027832,396.603424 699.360046,396.575226 
	C687.196838,396.481628 675.029541,396.384888 662.870239,396.620239 
	C658.440186,396.705963 657.440918,394.446381 657.498901,390.853302 
	C657.553284,387.481476 658.955811,385.943115 662.712524,385.934814 
	C674.995056,385.907745 674.994751,385.757568 674.994751,373.326996 
	C674.994751,333.502808 674.997803,293.678589 674.991699,253.854401 
	C674.990662,247.010544 674.886902,246.922485 667.999878,246.862091 
	C666.500366,246.848953 664.977295,246.689743 663.505249,246.891312 
	C659.084412,247.496689 657.456543,245.347275 657.498596,241.234802 
	C657.539185,237.256943 659.342896,235.781509 663.399353,235.944687 
	C670.552795,236.232483 677.733582,236.220673 684.888489,235.951752 
	C689.225647,235.788773 691.480652,237.579361 693.208618,241.451050 
	C710.726379,280.702545 728.383667,319.891846 746.015686,359.092346 
	C748.243347,364.045044 750.550781,368.961823 753.318176,374.974976 
	C758.838623,362.551941 763.882568,351.268341 768.871948,339.960724 
	C783.475464,306.864563 798.107239,273.780670 812.573547,240.624603 
	C814.086853,237.156082 816.099426,235.875153 819.763611,235.966812 
	C827.423706,236.158417 835.092834,236.094681 842.756348,235.991180 
	C845.803833,235.950027 847.737122,236.980255 847.468384,240.224731 
	C847.220703,243.215012 847.733582,246.988724 842.847046,246.857208 
	C842.014587,246.834793 841.180786,246.848541 840.347778,246.860886 
	C828.352173,247.038681 829.906921,245.510529 829.886719,257.148956 
	C829.816101,297.806183 829.853821,338.463593 829.864990,379.120941 
	C829.866821,385.977844 829.900146,385.976837 836.863159,385.995636 
	C838.362732,385.999695 839.868225,386.103394 841.360779,386.005341 
	C844.848816,385.776245 847.677490,386.017853 847.592468,390.755157 
	C847.511108,395.290863 845.464478,396.690857 841.098816,396.613617 
	C829.105286,396.401367 817.104919,396.469910 805.108704,396.579926 
	C801.228882,396.615479 799.381775,395.350647 799.369995,391.148163 
	C799.357666,386.773804 801.418823,385.924438 805.260620,385.931213 
	C818.437866,385.954437 816.967468,387.933258 816.982056,373.824280 
	C817.019836,337.170074 816.994751,300.515808 816.100159,263.445801 
	C815.088745,265.530457 814.009888,267.585358 813.075928,269.704132 
	C795.338379,309.945190 777.612549,350.191437 759.903503,390.445068 
	C758.461914,393.721924 757.174805,396.729004 752.589355,396.633392 
	C748.203735,396.541962 746.681458,393.917877 745.170349,390.529358 
	C726.920654,349.604187 708.595215,308.712860 690.285706,267.814362 
	C689.767761,266.657379 689.207947,265.519135 687.540344,264.500214 
	C687.540344,301.812561 687.540344,339.124908 687.540039,376.925964 
z"/>
<path fill="#186CB4" opacity="1.000000" stroke="none" 
	d="
M1551.246094,397.925232 
	C1526.884888,391.932434 1515.753418,370.630035 1524.928711,348.038086 
	C1530.296387,334.822021 1541.657104,329.308472 1554.566284,327.236969 
	C1564.357910,325.665710 1574.457764,326.077606 1584.403687,325.370667 
	C1587.680176,325.137787 1593.352173,324.805237 1593.714844,323.417206 
	C1595.060425,318.267212 1595.833252,312.211426 1591.443970,307.890778 
	C1589.098633,305.582245 1585.634888,303.437347 1582.482666,303.116486 
	C1575.092041,302.364319 1567.585083,302.767303 1560.125366,302.678467 
	C1556.378174,302.633789 1555.459229,304.641418 1555.496826,308.094177 
	C1555.569092,314.713501 1555.289673,314.830353 1548.800171,314.842346 
	C1543.968262,314.851288 1539.133301,314.737915 1534.305542,314.878418 
	C1530.887695,314.977844 1529.430908,313.431793 1529.439087,310.138611 
	C1529.459473,301.807892 1529.313354,293.472931 1529.573608,285.150330 
	C1529.616943,283.764069 1531.188721,281.430481 1532.355713,281.221893 
	C1554.178101,277.321960 1576.099365,273.689026 1598.281860,277.839325 
	C1616.901855,281.323151 1625.776001,292.222321 1625.964355,311.262939 
	C1626.137329,328.756012 1625.999268,346.252167 1626.003784,363.746948 
	C1626.005493,370.808167 1626.012085,370.808167 1633.299805,370.836487 
	C1639.962036,370.862366 1639.954346,370.862457 1640.005493,377.758392 
	C1640.040039,382.418396 1640.329346,387.093567 1640.018066,391.729248 
	C1639.916016,393.247589 1638.307495,395.917969 1637.346069,395.936920 
	C1623.388916,396.212036 1609.424683,396.125610 1595.090942,396.125610 
	C1594.733643,392.589752 1594.421875,389.502777 1594.025391,385.578796 
	C1581.487427,396.096008 1567.562500,400.640900 1551.246094,397.925232 
M1572.824707,344.157928 
	C1569.889160,344.667847 1566.865967,344.887390 1564.035034,345.743530 
	C1556.371460,348.061401 1552.935181,353.031311 1553.458618,360.490509 
	C1553.964355,367.699036 1558.491333,372.592194 1565.792725,374.091003 
	C1573.602295,375.694214 1580.884766,373.945984 1588.151611,371.216095 
	C1592.793823,369.472168 1595.199463,366.838135 1594.649048,361.560822 
	C1594.220459,357.450562 1594.430176,353.254517 1594.602051,349.106750 
	C1594.750244,345.531525 1593.486816,343.939728 1589.711792,344.099762 
	C1584.403076,344.324768 1579.077637,344.156464 1572.824707,344.157928 
z"/>
<path fill="#186CB4" opacity="1.000000" stroke="none" 
	d="
M1951.430786,276.368225 
	C1960.988159,276.897339 1970.250366,276.608032 1979.152100,278.260956 
	C1997.916870,281.745331 2009.198730,294.699921 2010.631104,313.743011 
	C2011.240356,321.844330 2010.528442,330.041168 2010.514893,338.194763 
	C2010.507324,342.771637 2008.609131,344.337952 2003.838745,344.279999 
	C1982.189209,344.016968 1960.534668,344.160736 1938.881958,344.167236 
	C1931.789429,344.169342 1931.392334,344.689728 1933.036377,351.641418 
	C1935.955444,363.984100 1946.539795,372.776855 1961.090576,372.778198 
	C1973.317383,372.779358 1985.573853,371.049805 1997.753174,369.562958 
	C2001.272705,369.133240 2003.026855,369.075653 2003.467651,373.087402 
	C2004.066406,378.536377 2005.322876,383.918365 2005.793457,389.372528 
	C2005.916626,390.799316 2004.433594,393.457581 2003.252319,393.742432 
	C1980.527954,399.222687 1957.623779,401.518768 1934.681519,395.255249 
	C1912.170166,389.109314 1901.590698,372.778564 1899.301880,350.750000 
	C1898.282593,340.940460 1898.359863,330.710297 1899.939209,320.996185 
	C1904.276245,294.321655 1918.815186,280.867493 1945.520996,277.107330 
	C1947.333984,276.852051 1949.155029,276.654236 1951.430786,276.368225 
M1966.191040,300.958252 
	C1949.272461,297.377228 1936.612305,304.296539 1932.819702,318.867218 
	C1931.761230,322.934143 1932.841187,324.443176 1936.861938,324.433289 
	C1949.356201,324.402557 1961.850464,324.394653 1974.344482,324.452576 
	C1977.605713,324.467712 1979.026855,323.035217 1979.522095,319.791626 
	C1980.706421,312.033356 1976.125366,304.996948 1966.191040,300.958252 
z"/>
<path fill="#34A3D9" opacity="1.000000" stroke="none" 
	d="
M504.753510,201.121429 
	C492.945587,204.589584 480.919312,207.775070 468.531799,211.000824 
	C460.599731,201.388962 450.257660,195.292831 440.011841,189.063553 
	C402.766174,166.418930 365.549072,143.727234 328.261078,121.152626 
	C324.301086,118.755203 320.077423,116.658592 315.745636,115.038658 
	C307.318420,111.887199 299.088501,111.214241 292.517303,119.577972 
	C282.506592,113.811546 272.745728,108.189034 262.513031,102.294716 
	C269.321289,91.048691 278.618530,83.528999 290.968903,80.063316 
	C309.348114,74.905853 326.437164,79.420845 342.141022,88.817986 
	C384.682831,114.274864 426.991669,140.123901 469.248108,166.053360 
	C483.619476,174.871933 495.245575,186.734543 504.753510,201.121429 
z"/>
<path fill="#186CB4" opacity="1.000000" stroke="none" 
	d="
M525.516296,262.921844 
	C525.625916,264.575867 525.830811,266.229889 525.831238,267.883942 
	C525.847656,328.012451 525.878296,388.140961 525.829895,448.269440 
	C525.808167,475.196594 503.360382,497.820496 477.154999,496.739227 
	C477.154999,491.039917 477.154999,485.282959 477.154999,479.526001 
	C477.154999,473.876434 477.154999,468.226898 477.154999,462.664307 
	C488.165710,459.387299 490.994202,455.582428 490.995972,444.321777 
	C491.005096,386.192047 491.012451,328.062317 491.465454,269.454895 
	C502.751831,264.957397 513.901611,262.649597 525.516296,262.921844 
z"/>
<path fill="#186CB4" opacity="1.000000" stroke="none" 
	d="
M1646.961914,323.999390 
	C1649.337524,306.429718 1655.785034,291.784149 1671.940308,283.274414 
	C1681.576294,278.198669 1692.180420,276.748352 1702.852417,276.224457 
	C1717.416016,275.509491 1731.749756,277.421936 1745.919434,280.826599 
	C1748.921265,281.547913 1750.081543,282.933594 1750.040405,285.953796 
	C1749.929199,294.118835 1749.898926,302.288361 1750.050903,310.452087 
	C1750.112793,313.777557 1748.648682,314.897461 1745.572388,314.859436 
	C1739.906616,314.789459 1734.237427,314.749023 1728.573608,314.877930 
	C1725.149170,314.955872 1723.936035,313.591675 1723.920654,310.127075 
	C1723.888428,302.811768 1723.722900,302.701752 1716.486084,302.182068 
	C1712.676880,301.908508 1708.811279,301.821228 1705.010742,302.132751 
	C1690.920044,303.287659 1682.444458,311.459229 1680.440308,327.708099 
	C1679.441528,335.806580 1679.966553,344.413330 1681.564941,352.439117 
	C1684.171753,365.528290 1693.515259,373.117249 1706.823486,372.882782 
	C1717.726807,372.690643 1728.635620,370.940186 1739.463501,369.346741 
	C1743.291016,368.783508 1745.044189,369.438049 1745.760620,373.252289 
	C1746.742432,378.479340 1747.858521,383.692719 1749.215576,388.833160 
	C1749.973999,391.706299 1749.360718,393.254028 1746.400757,393.952179 
	C1726.775024,398.581329 1707.012817,400.872375 1687.019043,396.727264 
	C1663.554443,391.862610 1649.989380,376.991791 1647.243286,352.305298 
	C1646.221436,343.119110 1646.980713,333.734741 1646.961914,323.999390 
z"/>
<path fill="#6FBE4C" opacity="1.000000" stroke="none" 
	d="
M1085.021729,325.008850 
	C1084.718872,319.047180 1084.783325,313.532867 1084.038330,308.130157 
	C1082.371216,296.038025 1074.373169,288.294952 1062.296265,287.086334 
	C1044.914917,285.346832 1030.624023,292.822876 1017.453918,303.013123 
	C1016.193115,303.988647 1015.635559,306.540833 1015.626587,308.365417 
	C1015.508423,332.353546 1015.596863,356.342621 1015.500244,380.330933 
	C1015.483582,384.470642 1016.716187,386.667664 1021.233459,386.024811 
	C1022.702942,385.815674 1024.227417,385.985748 1025.726685,385.993896 
	C1031.801270,386.026947 1032.660400,386.712585 1031.811890,392.488922 
	C1031.592163,393.984741 1029.404785,396.321228 1028.079712,396.349915 
	C1015.092712,396.631165 1002.096863,396.498138 989.103577,396.500702 
	C985.809021,396.501373 985.283020,394.299347 985.505005,391.784058 
	C985.723083,389.314056 985.033447,386.064148 989.181274,386.024567 
	C990.347290,386.013428 991.513367,386.002380 992.679382,385.992218 
	C1003.375916,385.899078 1002.107544,387.253998 1002.123779,376.274536 
	C1002.163940,349.120728 1002.038330,321.966125 1002.232544,294.813629 
	C1002.265503,290.210693 1000.949219,288.299652 996.299561,288.942169 
	C994.664917,289.168091 992.961975,288.856140 991.309143,289.002960 
	C987.642212,289.328674 985.239746,288.700073 985.358704,284.072388 
	C985.467346,279.843079 987.049622,278.007233 991.297424,278.102814 
	C997.458069,278.241455 1003.627625,278.264954 1009.786743,278.095306 
	C1014.172180,277.974487 1015.747009,280.048492 1015.571777,284.165680 
	C1015.438477,287.298431 1015.545349,290.441376 1015.545349,294.892426 
	C1017.745483,293.337677 1019.013123,292.505310 1020.212708,291.584442 
	C1032.503662,282.149109 1045.943726,275.871216 1061.840576,275.976440 
	C1084.568848,276.126862 1097.672974,289.055481 1097.829468,312.001740 
	C1097.982666,334.490112 1097.857178,356.980316 1097.866821,379.469727 
	C1097.869629,385.953003 1097.889893,385.952881 1104.560669,385.993073 
	C1106.059814,386.002106 1107.563477,386.090576 1109.057373,386.005981 
	C1112.530029,385.809296 1115.123413,385.979797 1115.156494,390.815918 
	C1115.187744,395.374451 1113.345947,396.613251 1109.267700,396.579437 
	C1097.274048,396.479889 1085.278076,396.450409 1073.285522,396.599152 
	C1069.318481,396.648346 1067.957886,394.911102 1067.985718,391.194916 
	C1068.013916,387.450317 1069.472290,385.954926 1073.399902,385.933990 
	C1085.022583,385.872101 1085.021851,385.726013 1085.021851,373.984131 
	C1085.021851,357.825043 1085.021851,341.665955 1085.021729,325.008850 
z"/>
<path fill="#6FBE4D" opacity="1.000000" stroke="none" 
	d="
M1366.759277,280.590973 
	C1367.148926,288.687988 1367.150024,288.862000 1359.904419,288.905487 
	C1356.375488,288.926697 1355.032959,290.711212 1353.879639,293.635895 
	C1339.583618,329.887939 1325.204956,366.107483 1310.831421,402.328888 
	C1306.533569,413.159424 1301.972656,423.851501 1294.137939,432.746460 
	C1283.645508,444.658752 1270.419067,447.834076 1255.271729,444.983826 
	C1251.420776,444.259247 1251.920532,441.420746 1252.184570,438.771484 
	C1252.463623,435.973785 1253.578857,433.953278 1256.972656,434.580597 
	C1272.856201,437.516998 1282.717896,429.481812 1290.437012,416.757782 
	C1296.824829,406.228302 1298.434326,396.778839 1292.673706,384.500153 
	C1279.014526,355.384796 1267.320190,325.345978 1254.916138,295.645142 
	C1253.073486,291.232880 1250.651001,288.234070 1245.299683,288.942932 
	C1241.940918,289.387878 1239.952393,288.159454 1239.956665,284.271667 
	C1239.960938,280.547089 1240.827881,278.105286 1245.141968,278.122772 
	C1257.636719,278.173492 1270.132690,278.225922 1282.626099,278.086853 
	C1286.669922,278.041840 1287.432861,280.572906 1287.430054,283.556671 
	C1287.426880,286.720764 1286.699585,289.378326 1282.314209,289.060394 
	C1277.413818,288.705109 1272.467651,288.978851 1266.270752,288.978851 
	C1279.751709,321.606323 1292.745972,353.056244 1306.336792,385.949524 
	C1318.589966,353.159027 1330.346558,321.697083 1342.572754,288.979034 
	C1337.013550,288.979034 1332.296753,288.813416 1327.597900,289.031708 
	C1323.881226,289.204376 1321.999023,288.048889 1321.981567,284.036682 
	C1321.964844,280.176056 1323.203125,278.073944 1327.401978,278.106506 
	C1338.896606,278.195709 1350.393433,278.058228 1361.886353,278.227325 
	C1363.472412,278.250641 1365.040405,279.501953 1366.759277,280.590973 
z"/>
<path fill="#6EBE4C" opacity="1.000000" stroke="none" 
	d="
M1223.764160,394.968933 
	C1205.713013,398.862274 1187.993530,400.754791 1170.031860,397.130280 
	C1148.637451,392.813080 1135.778809,379.794006 1131.325928,358.651703 
	C1127.960815,342.674530 1128.148560,326.673676 1132.863281,310.877014 
	C1138.631836,291.548798 1151.790039,280.598480 1171.361450,277.116089 
	C1181.589722,275.296173 1191.809326,275.448730 1202.002686,277.926910 
	C1218.148315,281.852264 1229.602783,294.316315 1230.810913,310.822357 
	C1231.362183,318.356354 1230.256226,326.003296 1230.069214,333.603149 
	C1229.973389,337.495636 1227.853394,338.073303 1224.524536,338.059326 
	C1200.878052,337.959961 1177.230957,338.005768 1153.583984,338.006805 
	C1142.015869,338.007324 1141.524658,338.406647 1143.772217,349.695953 
	C1144.928589,355.504120 1146.161743,361.487976 1148.622070,366.809052 
	C1155.460571,381.599243 1168.408813,387.680634 1183.780518,387.780182 
	C1196.149780,387.860260 1208.541992,386.064758 1220.900024,384.855103 
	C1223.445557,384.605927 1226.114624,383.294342 1226.804077,386.935760 
	C1227.364014,389.891907 1229.439331,393.740021 1223.764160,394.968933 
M1144.025391,319.752472 
	C1143.972778,320.582794 1143.983032,321.422699 1143.857910,322.241943 
	C1142.723145,329.670471 1142.716187,329.676300 1150.183960,329.678101 
	C1167.993530,329.682343 1185.803223,329.679443 1203.612793,329.679443 
	C1218.785522,329.679443 1218.785522,329.679443 1218.101318,314.218292 
	C1217.571899,302.259247 1210.418823,292.185364 1199.359741,288.458923 
	C1187.536743,284.475098 1175.758179,285.029327 1164.462036,290.352722 
	C1152.441650,296.017456 1147.018188,306.613190 1144.025391,319.752472 
z"/>
<path fill="#6EBE4C" opacity="1.000000" stroke="none" 
	d="
M864.008423,331.120880 
	C865.559143,322.529449 866.197998,314.113007 868.830688,306.374939 
	C874.559326,289.537415 886.789429,279.670715 904.476562,277.006989 
	C921.075806,274.507080 937.034119,275.681885 950.687988,286.855530 
	C961.675781,295.847321 966.212769,308.477020 967.558350,321.853638 
	C968.930237,335.490906 969.312622,349.351105 965.761230,362.911957 
	C959.996033,384.925995 943.884766,398.055542 920.660400,398.709808 
	C913.281921,398.917664 905.633057,398.267975 898.492065,396.478149 
	C879.597534,391.742432 869.795959,378.023682 866.243225,359.832031 
	C864.445618,350.627594 864.683289,341.025665 864.008423,331.120880 
M950.393250,366.754120 
	C956.030396,352.264862 956.295776,337.358612 954.172363,322.175659 
	C951.486328,302.970306 940.917480,285.317719 913.079590,287.005554 
	C900.079163,287.793793 889.578674,293.115143 883.894714,305.360168 
	C875.172546,324.150452 875.221069,343.591248 881.020325,363.118530 
	C885.429932,377.966614 896.702271,386.970673 911.302612,388.012238 
	C930.681641,389.394714 942.851135,382.948029 950.393250,366.754120 
z"/>
<path fill="#235179" opacity="1.000000" stroke="none" 
	d="
M454.386841,300.452026 
	C443.477600,316.298431 432.715698,331.715851 421.947693,347.129028 
	C421.571198,347.667908 421.133850,348.164246 420.372650,348.390198 
	C419.954620,341.160767 419.888824,334.221497 419.823029,327.282227 
	C430.066315,312.266174 440.309631,297.250092 450.829376,282.021667 
	C452.248291,287.880341 453.390747,293.951355 454.386841,300.452026 
z"/>
<path fill="#235179" opacity="1.000000" stroke="none" 
	d="
M525.618530,262.593201 
	C513.901611,262.649597 502.751831,264.957397 491.536194,268.991394 
	C490.434631,263.320343 489.707367,257.635132 488.940582,251.532303 
	C499.724457,246.376678 511.117981,244.833298 523.267822,245.074005 
	C524.263611,249.596420 524.819031,254.104645 525.302734,259.286530 
	C525.362915,260.274200 525.494934,260.588226 525.626892,260.902222 
	C525.658142,261.356354 525.689453,261.810455 525.618530,262.593201 
z"/>
<path fill="#24527A" opacity="1.000000" stroke="none" 
	d="
M222.779938,371.944153 
	C211.322037,378.283234 204.756454,388.984131 197.955048,399.943298 
	C195.756485,396.317719 193.713608,392.362427 191.388519,388.204315 
	C197.988037,378.595856 204.757629,369.104248 211.847809,359.858521 
	C213.237381,358.046448 215.867920,357.186066 218.377914,356.247864 
	C220.146439,361.720673 221.463181,366.832397 222.779938,371.944153 
z"/>
<path fill="#186CB4" opacity="1.000000" stroke="none" 
	d="
M525.710693,260.651245 
	C525.494934,260.588226 525.362915,260.274200 525.314453,259.706482 
	C525.530151,259.768585 525.662354,260.084442 525.710693,260.651245 
z"/>
<path fill="#FFFFFF" opacity="1.000000" stroke="none" 
	d="
M318.462402,367.471527 
	C297.242462,347.195526 287.381409,322.631561 287.757446,293.514343 
	C288.198517,259.358948 287.860657,225.193481 287.860657,191.032379 
	C287.860657,189.242188 287.860657,187.452011 287.860657,184.907425 
	C291.464081,186.965240 294.473145,188.620834 297.421997,190.377457 
	C323.308533,205.798126 349.129333,221.330170 375.087067,236.629974 
	C387.660980,244.041183 398.170135,253.483521 406.233521,266.165558 
	C385.711212,295.975464 369.066284,328.413910 343.396393,354.339386 
	C336.643219,361.159729 329.095978,366.895477 318.462402,367.471527 
z"/>
<path fill="#FEFEFE" opacity="1.000000" stroke="none" 
	d="
M222.913422,372.290619 
	C221.463181,366.832397 220.146439,361.720673 218.720093,356.183716 
	C223.063431,352.203491 227.819977,353.005432 232.002731,355.734436 
	C235.982254,358.330872 239.609039,361.611969 242.939026,365.032043 
	C251.732849,374.063751 259.840088,383.806274 269.030884,392.399261 
	C283.010864,405.469910 299.851074,412.203583 319.818604,412.351929 
	C328.288818,417.100952 336.143616,421.529297 343.998413,425.957642 
	C364.164948,437.917877 384.331024,449.878876 404.499054,461.836578 
	C405.786865,462.600128 407.110687,463.304565 408.382111,464.093903 
	C412.181732,466.452667 418.058105,468.075867 419.268097,471.392792 
	C421.145721,476.539917 420.429810,482.918488 419.750427,488.648987 
	C418.615906,498.218475 407.839081,502.795624 398.976624,497.753876 
	C380.897919,487.469055 362.884338,477.069611 344.855042,466.698029 
	C318.605530,451.597626 292.457550,436.317932 266.092224,421.422729 
	C246.028961,410.087860 231.584183,394.026672 222.913422,372.290619 
z"/>
<path fill="#FDFEFF" opacity="1.000000" stroke="none" 
	d="
M217.463501,309.549683 
	C216.616516,308.154816 215.906967,306.778229 215.906448,305.401367 
	C215.890656,263.941833 215.936188,222.482285 216.014771,181.022797 
	C216.018509,179.043701 216.213287,177.019958 216.654266,175.093735 
	C220.610001,157.815384 237.518265,152.017746 251.334717,163.333939 
	C252.512039,164.298218 252.792725,166.859863 252.796265,168.680801 
	C252.875336,209.308823 252.791962,249.937195 252.909744,290.565033 
	C252.934296,299.035217 253.634171,307.503387 254.031906,316.400848 
	C242.704636,310.926941 230.770554,307.997131 217.463501,309.549683 
z"/>
<path fill="#FEFEFE" opacity="1.000000" stroke="none" 
	d="
M419.563354,327.455261 
	C419.888824,334.221497 419.954620,341.160767 420.091858,348.568848 
	C420.163330,375.827545 420.163330,402.617432 420.163330,430.477875 
	C405.264771,421.718781 391.036133,413.353546 376.280762,404.608887 
	C371.396454,401.544495 367.038849,398.859589 362.681244,396.174652 
	C381.228851,382.266693 394.723114,363.901611 407.681244,345.076141 
	C411.643036,339.320526 415.434296,333.447510 419.563354,327.455261 
z"/>
<path fill="#245179" opacity="1.000000" stroke="none" 
	d="
M362.447388,396.379333 
	C367.038849,398.859589 371.396454,401.544495 375.945282,404.510620 
	C367.327301,414.355072 356.570740,420.929962 344.230774,425.694641 
	C336.143616,421.529297 328.288818,417.100952 320.277588,412.382874 
	C335.658661,411.012604 349.665161,405.777039 362.447388,396.379333 
z"/>
<path fill="#FCFDFE" opacity="1.000000" stroke="none" 
	d="
M1573.291992,344.157135 
	C1579.077637,344.156464 1584.403076,344.324768 1589.711792,344.099762 
	C1593.486816,343.939728 1594.750244,345.531525 1594.602051,349.106750 
	C1594.430176,353.254517 1594.220459,357.450562 1594.649048,361.560822 
	C1595.199463,366.838135 1592.793823,369.472168 1588.151611,371.216095 
	C1580.884766,373.945984 1573.602295,375.694214 1565.792725,374.091003 
	C1558.491333,372.592194 1553.964355,367.699036 1553.458618,360.490509 
	C1552.935181,353.031311 1556.371460,348.061401 1564.035034,345.743530 
	C1566.865967,344.887390 1569.889160,344.667847 1573.291992,344.157135 
z"/>
<path fill="#FDFEFE" opacity="1.000000" stroke="none" 
	d="
M1966.588379,301.036072 
	C1976.125366,304.996948 1980.706421,312.033356 1979.522095,319.791626 
	C1979.026855,323.035217 1977.605713,324.467712 1974.344482,324.452576 
	C1961.850464,324.394653 1949.356201,324.402557 1936.861938,324.433289 
	C1932.841187,324.443176 1931.761230,322.934143 1932.819702,318.867218 
	C1936.612305,304.296539 1949.272461,297.377228 1966.588379,301.036072 
z"/>
<path fill="#FDFEFC" opacity="1.000000" stroke="none" 
	d="
M1144.096436,319.335754 
	C1147.018188,306.613190 1152.441650,296.017456 1164.462036,290.352722 
	C1175.758179,285.029327 1187.536743,284.475098 1199.359741,288.458923 
	C1210.418823,292.185364 1217.571899,302.259247 1218.101318,314.218292 
	C1218.785522,329.679443 1218.785522,329.679443 1203.612793,329.679443 
	C1185.803223,329.679443 1167.993530,329.682343 1150.183960,329.678101 
	C1142.716187,329.676300 1142.723145,329.670471 1143.857910,322.241943 
	C1143.983032,321.422699 1143.972778,320.582794 1144.096436,319.335754 
z"/>
<path fill="#FEFFFE" opacity="1.000000" stroke="none" 
	d="
M950.246216,367.107086 
	C942.851135,382.948029 930.681641,389.394714 911.302612,388.012238 
	C896.702271,386.970673 885.429932,377.966614 881.020325,363.118530 
	C875.221069,343.591248 875.172546,324.150452 883.894714,305.360168 
	C889.578674,293.115143 900.079163,287.793793 913.079590,287.005554 
	C940.917480,285.317719 951.486328,302.970306 954.172363,322.175659 
	C956.295776,337.358612 956.030396,352.264862 950.246216,367.107086 
z"/>
</svg>