<!DOCTYPE svg PUBLIC "-//W3C//DTD SVG 1.1//EN" "http://www.w3.org/Graphics/SVG/1.1/DTD/svg11.dtd">
<!-- Uploaded to: SVG Repo, www.svgrepo.com, Transformed by: SVG Repo Mixer Tools -->
<svg fill="#382c72" width="800px" height="800px" viewBox="0 0 24 24" id="phillippine-peso" data-name="Flat Color" xmlns="http://www.w3.org/2000/svg" class="icon flat-color" stroke="#382c72" transform="rotate(0)">
<g id="SVGRepo_bgCarrier" stroke-width="0"/>
<g id="SVGRepo_tracerCarrier" stroke-linecap="round" stroke-linejoin="round"/>
<g id="SVGRepo_iconCarrier">
<path id="primary" d="M20,10H17.92a6.29,6.29,0,0,0,0-2H20a1,1,0,0,0,0-2H17.31A7,7,0,0,0,11,2H8A1,1,0,0,0,7,3V6H4A1,1,0,0,0,4,8H7v2H4a1,1,0,0,0,0,2H7v9a1,1,0,0,0,2,0V16h2a7,7,0,0,0,6.31-4H20a1,1,0,0,0,0-2ZM9,4h2a5,5,0,0,1,4,2H9ZM9,8h6.9a5.05,5.05,0,0,1,0,2H9Zm2,6H9V12h6A5,5,0,0,1,11,14Z" style="fill: #d4d4d4;"/>
</g>
</svg>