<svg xmlns="http://www.w3.org/2000/svg" width="2140" height="600" viewBox="0 0 2140 600" version="1.1"><path d="M 510.500 244.674 C 505.193 245.336, 492.671 248.193, 490.261 249.291 C 488.975 249.877, 488.145 250.935, 488.416 251.643 C 488.688 252.351, 489.220 256.344, 489.598 260.517 L 490.285 268.104 491.893 267.487 C 497.698 265.257, 508.739 262.885, 515.883 262.333 L 524.267 261.684 523.659 254.490 C 522.806 244.399, 522.557 243.972, 517.643 244.150 C 515.364 244.232, 512.150 244.468, 510.500 244.674 M 442.773 290.693 C 439.190 295.537, 432.361 305.381, 427.595 312.568 L 418.931 325.636 419.216 336.909 L 419.500 348.183 434.273 326.342 C 442.398 314.329, 450.017 303.270, 451.205 301.768 L 453.364 299.035 452.161 291.297 C 451.499 287.040, 450.582 283.182, 450.122 282.722 C 449.662 282.262, 446.355 285.849, 442.773 290.693 M 208.751 361.212 C 202.401 367.562, 192.400 381.622, 191.384 385.628 C 191.062 386.897, 192.001 390.043, 193.711 393.424 L 196.577 399.092 202.274 390.704 C 207.662 382.773, 216.940 372.853, 219.891 371.870 L 221.238 371.421 219.251 363.504 C 218.159 359.150, 216.777 355.426, 216.181 355.227 C 215.585 355.028, 212.241 357.721, 208.751 361.212 M 354.500 400.062 C 347.175 404.828, 336.937 408.661, 327.196 410.283 L 319.892 411.500 329.196 416.951 C 334.313 419.948, 339.448 422.995, 340.606 423.722 L 342.713 425.042 351.606 420.562 C 360.034 416.318, 373.983 406.587, 374.664 404.477 C 374.956 403.575, 362.602 395.901, 361.145 396.079 C 360.790 396.122, 357.800 397.914, 354.500 400.062" stroke="none" fill="#224f78" fill-rule="evenodd"/><path d="M 296 77.690 C 290.009 78.692, 281.085 82.340, 276 85.865 C 271.071 89.283, 261.993 98.962, 262.004 100.787 C 262.009 101.488, 290.103 118, 291.290 118 C 291.624 118, 293.100 116.885, 294.570 115.522 C 299.308 111.132, 308.556 110.942, 317.841 115.046 C 320.403 116.179, 351.908 134.969, 387.851 156.803 L 453.201 196.500 460.515 203.269 L 467.829 210.038 472.820 208.071 C 479.089 205.600, 488.499 203.113, 497.301 201.601 L 504.102 200.433 498.832 193.471 C 492.184 184.689, 482.682 175.298, 474.693 169.612 C 462.879 161.205, 339.461 86.630, 332 83.391 C 320.202 78.269, 305.994 76.019, 296 77.690 M 219 124.446 C 199.738 129.868, 185.925 145.645, 181.560 167.208 L 180 174.916 180 251.145 L 180 327.374 182.750 324.834 C 188.263 319.742, 201.430 312.094, 206.500 311.038 C 207.050 310.924, 208.005 310.410, 208.623 309.898 C 209.241 309.385, 210.479 309.246, 211.373 309.590 C 212.325 309.955, 213 309.710, 213 309 C 213 308.332, 213.563 308.002, 214.250 308.266 C 215.244 308.647, 215.446 295.128, 215.236 242.282 C 215.067 199.738, 215.336 174.466, 215.984 172.060 C 217.243 167.383, 220.622 162.334, 224.327 159.592 C 228.543 156.472, 238.618 156.781, 246.250 160.265 L 252 162.890 252.074 235.195 C 252.115 274.963, 252.452 309.525, 252.824 312 C 253.324 315.331, 254.084 316.756, 255.750 317.487 C 256.988 318.030, 258 318.818, 258 319.237 C 258 319.657, 258.689 320, 259.531 320 C 260.374 320, 261.322 320.675, 261.638 321.500 C 261.955 322.325, 262.689 323, 263.269 323 C 264.762 323, 281.005 339.182, 280.436 340.103 C 280.178 340.520, 280.494 341.187, 281.138 341.585 C 281.932 342.076, 282.047 341.857, 281.494 340.905 C 280.508 339.204, 280.547 339.243, 286.080 345.494 C 288.511 348.241, 289.600 349.823, 288.500 349.009 C 287.400 348.196, 288.975 349.999, 292 353.015 C 295.025 356.032, 297.823 358.370, 298.217 358.211 C 298.612 358.052, 299.508 358.840, 300.208 359.961 C 300.908 361.083, 302.048 362, 302.741 362 C 303.433 362, 304 362.382, 304 362.848 C 304 363.744, 313.187 367, 315.715 367 C 316.590 367, 315.035 364.638, 311.930 361.250 C 301.864 350.267, 293.952 335.764, 289.427 320 L 287.561 313.500 287.246 248.696 L 286.931 183.892 288.979 184.989 C 293.439 187.376, 378.579 238.273, 381.442 240.264 C 388.266 245.008, 394.792 251.214, 400 257.912 C 403.025 261.802, 405.725 264.978, 406 264.971 C 406.275 264.963, 407.842 263.054, 409.481 260.729 C 411.121 258.403, 415.959 252.334, 420.231 247.243 C 424.504 242.151, 428 237.530, 428 236.975 C 428 234.792, 409.030 217.114, 401 211.814 C 387.881 203.155, 268.811 132.258, 262.814 129.535 C 249.560 123.518, 230.260 121.276, 219 124.446 M 1510.413 260.500 C 1510.414 270.400, 1510.564 274.315, 1510.746 269.199 C 1510.928 264.084, 1510.927 255.984, 1510.744 251.199 C 1510.561 246.415, 1510.412 250.600, 1510.413 260.500 M 524.481 355.500 C 524.481 409.400, 524.602 431.303, 524.750 404.174 C 524.898 377.045, 524.898 332.945, 524.750 306.174 C 524.602 279.403, 524.481 301.600, 524.481 355.500 M 1770 313.700 C 1769.725 344.611, 1769.841 369.559, 1770.259 369.142 C 1770.676 368.724, 1770.901 343.434, 1770.758 312.941 L 1770.499 257.500 1770 313.700 M 1570.750 275.740 C 1574.188 275.936, 1579.813 275.936, 1583.250 275.740 C 1586.688 275.545, 1583.875 275.385, 1577 275.385 C 1570.125 275.385, 1567.313 275.545, 1570.750 275.740 M 1702.250 275.739 C 1705.412 275.937, 1710.588 275.937, 1713.750 275.739 C 1716.912 275.541, 1714.325 275.378, 1708 275.378 C 1701.675 275.378, 1699.088 275.541, 1702.250 275.739 M 1491.789 279.741 C 1495.248 279.937, 1500.648 279.936, 1503.789 279.738 C 1506.930 279.540, 1504.100 279.380, 1497.500 279.382 C 1490.900 279.384, 1488.330 279.546, 1491.789 279.741 M 1528.397 297 C 1528.397 304.975, 1528.553 308.238, 1528.743 304.250 C 1528.932 300.262, 1528.932 293.738, 1528.743 289.750 C 1528.553 285.762, 1528.397 289.025, 1528.397 297 M 1379.382 315.500 C 1379.384 322.100, 1379.546 324.670, 1379.741 321.211 C 1379.937 317.752, 1379.936 312.352, 1379.738 309.211 C 1379.540 306.070, 1379.380 308.900, 1379.382 315.500 M 2009.397 324 C 2009.397 331.975, 2009.553 335.238, 2009.743 331.250 C 2009.932 327.262, 2009.932 320.738, 2009.743 316.750 C 2009.553 312.762, 2009.397 316.025, 2009.397 324 M 1736.500 313 L 1724.500 313.598 1736.191 313.799 C 1743.132 313.918, 1748.133 313.594, 1748.500 313 C 1748.840 312.450, 1748.979 312.091, 1748.809 312.201 C 1748.639 312.312, 1743.100 312.671, 1736.500 313 M 1535.789 313.741 C 1539.248 313.937, 1544.648 313.936, 1547.789 313.738 C 1550.930 313.540, 1548.100 313.380, 1541.500 313.382 C 1534.900 313.384, 1532.330 313.546, 1535.789 313.741 M 1877.211 340.691 C 1877.095 356.196, 1877.338 369.091, 1877.750 369.347 C 1878.162 369.603, 1878.385 361.417, 1878.244 351.156 C 1877.761 315.965, 1877.422 312.530, 1877.211 340.691 M 1943.195 323.746 C 1949.077 323.922, 1958.977 323.923, 1965.195 323.747 C 1971.413 323.571, 1966.600 323.427, 1954.500 323.426 C 1942.400 323.425, 1937.313 323.569, 1943.195 323.746 M 1573.292 324.742 C 1577.027 324.935, 1582.877 324.934, 1586.292 324.739 C 1589.706 324.545, 1586.650 324.387, 1579.500 324.389 C 1572.350 324.390, 1569.556 324.550, 1573.292 324.742 M 1510.411 370 C 1510.411 379.625, 1510.561 383.563, 1510.745 378.750 C 1510.928 373.938, 1510.928 366.063, 1510.745 361.250 C 1510.561 356.438, 1510.411 360.375, 1510.411 370 M 1834.382 382.500 C 1834.384 389.100, 1834.546 391.670, 1834.741 388.211 C 1834.937 384.752, 1834.936 379.352, 1834.738 376.211 C 1834.540 373.070, 1834.380 375.900, 1834.382 382.500 M 476.413 478.500 C 476.414 488.400, 476.564 492.315, 476.746 487.199 C 476.928 482.084, 476.927 473.984, 476.744 469.199 C 476.561 464.415, 476.412 468.600, 476.413 478.500" stroke="none" fill="#33a2d9" fill-rule="evenodd"/><path d="M 116.500 13.525 C 76.356 22.388, 43.400 54.072, 32.250 94.523 L 29.500 104.500 29.500 260.500 L 29.500 416.500 30.823 424 C 32.797 435.189, 37.650 453.066, 41.008 461.521 C 58.843 506.417, 91.546 541.760, 134.466 562.523 C 155.156 572.532, 173.902 577.874, 195.812 580.006 C 209.525 581.340, 2018.194 581.291, 2027.500 579.956 C 2050.500 576.657, 2070.849 566.966, 2088.225 551.035 C 2105.139 535.527, 2118.537 510.824, 2121.979 488.802 C 2122.809 483.490, 2123.026 438.982, 2122.775 325.500 L 2122.429 169.500 2120.214 160 C 2115.105 138.082, 2105.812 115.017, 2095.264 98.076 C 2083.858 79.758, 2063.848 58.614, 2045.500 45.492 C 2025.180 30.959, 1994.555 18.112, 1970.380 13.980 L 1958.801 12 1040.651 12.100 L 122.500 12.201 116.500 13.525 M 292.348 78.420 C 283.311 80.612, 275.909 84.922, 268.750 92.161 C 265.038 95.915, 262 99.590, 262 100.328 C 262 101.643, 289.457 118, 291.664 118 C 292.281 118, 293.018 117.396, 293.301 116.658 C 294.114 114.539, 300.414 112, 304.856 112 C 307.085 112, 311.742 113.037, 315.205 114.303 C 321.256 116.518, 440.861 188.491, 453.500 197.524 C 459.621 201.898, 467.721 209.640, 466.935 210.364 C 466.696 210.585, 463.350 212.344, 459.500 214.274 C 451.380 218.344, 441.749 225.235, 434.182 232.390 L 428.864 237.419 422.397 230.263 C 418.841 226.327, 412.683 220.495, 408.713 217.303 C 404.743 214.111, 375.511 195.975, 343.753 177 C 311.994 158.025, 283.195 140.780, 279.755 138.677 C 269.583 132.460, 256.010 126.353, 248.281 124.516 C 239.023 122.315, 225.927 122.302, 218.350 124.487 C 200.238 129.709, 185.738 146.240, 181.499 166.500 L 180.035 173.500 180.017 249.792 L 180 326.084 172.383 334.792 C 168.194 339.581, 162.077 347.550, 158.791 352.500 C 146.871 370.454, 132.259 403.792, 125.046 429.495 L 121.960 440.490 123.022 445.608 C 126.392 461.841, 144.452 468.699, 157.994 458.889 C 162.779 455.423, 164.885 451.440, 168.512 439 C 171.869 427.482, 180.189 406.524, 185.923 395.138 L 190.134 386.777 193.137 393.138 C 201.591 411.048, 219.146 431.784, 235.015 442.603 C 246.653 450.538, 383.820 529.023, 390 531.283 C 394.116 532.788, 398.016 533.300, 405.500 533.317 L 415.500 533.341 421.500 531.028 C 437.627 524.813, 448.394 513.104, 452.508 497.307 L 454 491.580 453.965 395.040 L 453.930 298.500 452.485 290.500 C 451.690 286.100, 451.030 281.736, 451.020 280.801 C 451.009 279.867, 454.827 275.081, 459.505 270.166 C 467.818 261.430, 476.838 254.626, 484.141 251.582 L 487.782 250.064 488.527 253.282 C 489.421 257.150, 490.368 445.113, 489.516 449.721 C 488.677 454.260, 484.536 458.759, 479.926 460.140 L 476 461.317 476 478.658 L 476 496 479.290 496 C 481.099 496, 485.228 495.310, 488.465 494.467 C 505.970 489.908, 520.194 474.946, 523.895 457.201 C 525.424 449.870, 525.438 261.709, 523.911 251.864 C 523.312 248.003, 523.075 244.592, 523.384 244.282 C 524.434 243.233, 544.596 246.036, 553.893 248.524 C 565.330 251.585, 568.170 251.600, 574.541 248.633 C 584.013 244.222, 589.162 234.182, 586.980 224.380 C 584.686 214.072, 579.110 209.300, 565 205.569 C 549.044 201.350, 537.223 199.903, 519.892 200.051 L 503.975 200.186 499.444 194.030 C 493.897 186.496, 484.514 177.029, 476.500 170.882 C 467.232 163.773, 340.486 87.001, 331.825 83.251 C 318.199 77.350, 303.948 75.606, 292.348 78.420 M 226.450 158.407 C 222.105 160.300, 218.259 165.302, 216.501 171.347 L 214.985 176.562 215.243 242.465 L 215.500 308.369 221.520 308.123 C 228.908 307.821, 240.411 310.126, 247.328 313.293 L 252.500 315.661 252.228 239.581 L 251.956 163.500 250.242 162.217 C 247.759 160.359, 236.322 156.993, 232.645 157.039 C 230.915 157.061, 228.128 157.676, 226.450 158.407 M 287.224 248.639 L 287.544 313.500 290.338 322.500 C 295.153 338.014, 302.612 351.089, 313.223 362.620 L 317.014 366.739 321.669 365.869 C 328.304 364.630, 334.352 360.781, 343.332 352.085 C 353.995 341.758, 362.293 330.650, 385.477 295.666 L 405.249 265.833 404.012 263.523 C 401.693 259.190, 394.028 250.509, 388.258 245.683 C 385.091 243.033, 362.475 228.915, 338 214.310 C 313.525 199.704, 292.016 186.859, 290.202 185.766 L 286.905 183.778 287.224 248.639 M 1761.250 230.807 L 1757 231.115 1757 243.557 L 1757 256 1762.250 256.015 C 1765.138 256.024, 1768.066 256.390, 1768.758 256.830 C 1769.750 257.459, 1769.962 269.478, 1769.758 313.564 L 1769.500 369.500 1763.250 369.798 L 1757 370.095 1757 382.548 L 1757 395 1785.500 395 L 1814 395 1814 382.500 L 1814 370 1809.200 370 C 1806.560 370, 1803.860 369.460, 1803.200 368.800 C 1802.325 367.925, 1802.004 360.271, 1802.014 340.550 C 1802.021 325.672, 1802.298 312.490, 1802.629 311.256 C 1803.371 308.485, 1813.141 303.478, 1821 301.841 C 1829.427 300.085, 1835.627 301.391, 1840.101 305.865 C 1842.125 307.889, 1844.277 311.335, 1844.885 313.523 C 1845.558 315.947, 1845.991 327.544, 1845.994 343.231 L 1846 368.962 1843.750 369.461 C 1842.513 369.736, 1839.925 370.082, 1838 370.230 L 1834.500 370.500 1834.500 382.500 L 1834.500 394.500 1862.750 394.766 L 1891 395.031 1891 382.563 L 1891 370.095 1884.750 369.798 L 1878.500 369.500 1877.907 337 L 1877.314 304.500 1875.147 297.847 C 1870.953 284.973, 1860.314 276.660, 1846.403 275.390 C 1832.895 274.156, 1820.710 277.746, 1809.507 286.262 C 1806.210 288.767, 1803.173 290.607, 1802.757 290.350 C 1802.340 290.092, 1802 276.844, 1802 260.910 C 1802 238.621, 1801.712 231.841, 1800.750 231.520 C 1799.146 230.985, 1766.853 230.402, 1761.250 230.807 M 1431.754 234.580 C 1403.952 239.607, 1387.241 257.049, 1381.567 286.962 C 1379.246 299.197, 1378.518 318.736, 1379.932 330.865 C 1384.209 367.551, 1398.895 387.325, 1427.700 395.184 L 1435.500 397.313 1453.500 397.313 C 1465.803 397.313, 1474.665 396.778, 1481.500 395.621 C 1496.371 393.105, 1508.726 390.035, 1509.957 388.551 C 1510.678 387.683, 1510.954 381.182, 1510.774 369.369 L 1510.500 351.500 1498.237 351.219 L 1485.974 350.938 1484.987 353.534 C 1484.444 354.962, 1484 358.785, 1484 362.030 C 1484 366.663, 1483.618 368.134, 1482.220 368.882 C 1479.221 370.487, 1460.044 372.289, 1451.899 371.731 C 1427.053 370.028, 1414.669 351.112, 1414.758 315 C 1414.828 286.359, 1421.610 270.256, 1436.738 262.808 L 1443.423 259.517 1454.170 259.149 C 1464.455 258.797, 1480.281 260.319, 1482.851 261.908 C 1483.630 262.390, 1484.084 265.403, 1484.109 270.270 C 1484.136 275.302, 1484.595 278.249, 1485.466 278.972 C 1486.302 279.665, 1491.121 279.962, 1498.642 279.783 L 1510.500 279.500 1510.772 261.288 L 1511.045 243.075 1508.772 241.640 C 1505.746 239.728, 1490.126 236.185, 1477.057 234.445 C 1463.801 232.680, 1441.902 232.745, 1431.754 234.580 M 657.402 236.395 C 657.108 237.162, 657.009 239.524, 657.183 241.645 L 657.500 245.500 664.971 245.798 C 669.391 245.975, 672.754 246.587, 673.206 247.298 C 673.626 247.959, 673.969 278.650, 673.969 315.500 C 673.969 352.350, 673.626 383.041, 673.206 383.702 C 672.754 384.413, 669.391 385.025, 664.971 385.202 L 657.500 385.500 657.195 390.250 L 656.890 395 680.500 395 L 704.110 395 703.805 390.250 L 703.500 385.500 696.045 385.202 C 691.944 385.038, 688.007 384.421, 687.295 383.830 C 686.261 382.972, 686 370.662, 686 322.878 C 686 289.945, 686.357 263, 686.793 263 C 687.230 263, 699.005 288.538, 712.961 319.750 C 726.917 350.962, 740.259 380.663, 742.610 385.750 L 746.884 395 751.425 395 L 755.966 395 758.345 390.250 C 759.654 387.637, 772.774 358.050, 787.502 324.500 C 802.229 290.950, 814.670 263.069, 815.147 262.542 C 815.639 262, 815.904 288.238, 815.758 323.042 L 815.500 384.500 807.500 385 L 799.500 385.500 799.195 390.250 L 798.890 395 822.500 395 L 846.110 395 845.805 390.250 L 845.500 385.500 837.500 385 L 829.500 384.500 829.500 315.500 L 829.500 246.500 835.500 246.243 C 838.800 246.101, 842.537 245.749, 843.803 245.460 L 846.107 244.935 845.803 240.218 L 845.500 235.500 830.500 235.251 C 822.250 235.114, 814.920 235.376, 814.212 235.834 C 813.503 236.291, 799.717 266.613, 783.576 303.217 C 767.435 339.820, 753.779 370.573, 753.229 371.556 L 752.229 373.343 750.730 370.421 C 749.905 368.815, 736.101 338.250, 720.053 302.500 C 704.006 266.750, 690.143 236.938, 689.247 236.250 C 686.785 234.361, 658.132 234.491, 657.402 236.395 M 900.402 276.486 C 882.694 280.338, 870.847 292.659, 865.293 313 C 862.782 322.193, 862.803 350.673, 865.326 360 C 871.778 383.848, 885.719 395.632, 909.791 397.586 C 939.059 399.961, 959.922 385.203, 965.492 358.185 C 967.476 348.562, 967.478 323.941, 965.496 314.500 C 962.338 299.461, 952.972 286.069, 941.783 280.595 C 931.049 275.343, 913.612 273.612, 900.402 276.486 M 1046.788 276.485 C 1039.617 278.307, 1028.108 284.012, 1021.231 289.154 C 1018.332 291.321, 1015.520 292.821, 1014.981 292.488 C 1014.441 292.155, 1014 288.807, 1014 285.048 C 1014 279.739, 1013.647 278.079, 1012.418 277.607 C 1011.548 277.273, 1005.735 277, 999.500 277 C 993.265 277, 987.452 277.273, 986.582 277.607 C 985.440 278.045, 985 279.564, 985 283.065 L 985 287.916 992.750 288.208 L 1000.500 288.500 1000.500 336.500 L 1000.500 384.500 993 385 L 985.500 385.500 985.194 390.269 L 984.889 395.038 1007.694 394.769 L 1030.500 394.500 1030.500 390 L 1030.500 385.500 1023.500 385.217 C 1018.394 385.010, 1016.162 384.485, 1015.250 383.276 C 1013.643 381.145, 1013.432 306.930, 1015.024 303.955 C 1016.398 301.387, 1026.784 294.426, 1034.378 290.983 C 1051.538 283.202, 1069.953 284.896, 1078.106 295.004 C 1079.657 296.927, 1081.623 301.233, 1082.475 304.573 L 1084.025 310.646 1083.763 347.573 L 1083.500 384.500 1075.759 384.792 L 1068.017 385.084 1067.426 387.440 C 1067.100 388.736, 1066.984 390.855, 1067.167 392.148 L 1067.500 394.500 1090.500 394.500 L 1113.500 394.500 1113.500 390 L 1113.500 385.500 1105.500 385 L 1097.500 384.500 1096.932 343.500 C 1096.348 301.356, 1096.132 299.073, 1091.973 291 C 1089.394 285.995, 1083.288 280.447, 1077.594 277.934 C 1071.198 275.111, 1055.161 274.356, 1046.788 276.485 M 1168.509 276.510 C 1148.905 280.584, 1136.422 292.909, 1130.858 313.686 C 1127.981 324.433, 1127.750 346.049, 1130.391 357.500 C 1135.171 378.220, 1147.739 391.134, 1168 396.141 C 1179.396 398.957, 1214.572 397.264, 1223.736 393.458 L 1226.973 392.113 1226.359 388.807 C 1226.021 386.988, 1225.211 384.925, 1224.558 384.221 L 1223.371 382.943 1216.436 384.672 C 1206.462 387.159, 1177.796 387.211, 1169.869 384.757 C 1153.987 379.840, 1144.224 366.016, 1142.343 345.785 C 1141.838 340.350, 1142.005 338.610, 1143.097 337.919 C 1143.869 337.430, 1163.266 337.024, 1186.203 337.015 L 1227.906 337 1228.947 333.250 C 1230.507 327.633, 1230.250 309.203, 1228.531 303.432 C 1224.820 290.967, 1215.922 281.702, 1204 277.887 C 1195.464 275.157, 1178.240 274.488, 1168.509 276.510 M 1557.500 276.030 C 1544.813 277.442, 1530.679 280.022, 1529.282 281.181 C 1527.682 282.509, 1527.469 309.140, 1529.035 312.066 L 1530.070 314 1541.413 314 C 1549.360 314, 1553.070 313.620, 1553.809 312.730 C 1554.388 312.032, 1555.006 309.447, 1555.181 306.985 L 1555.500 302.510 1558.500 301.873 C 1563.557 300.800, 1575.613 300.938, 1581.184 302.133 C 1584.863 302.922, 1587.457 304.257, 1589.733 306.533 L 1593 309.800 1593 316.745 L 1593 323.690 1575.250 324.324 C 1555.360 325.033, 1547.602 326.496, 1538.772 331.202 C 1524.221 338.958, 1517.970 354.882, 1522.544 372.540 C 1526.091 386.233, 1535.377 394.226, 1551 397.034 C 1563.303 399.245, 1576.359 396.344, 1587.100 389.012 L 1593 384.985 1593.014 387.742 C 1593.021 389.259, 1593.299 391.512, 1593.630 392.750 L 1594.233 395 1616.617 395 L 1639 395 1639 382.500 L 1639 370 1633.200 370 C 1630.010 370, 1626.860 369.460, 1626.200 368.800 C 1625.317 367.917, 1625 359.223, 1625 335.905 L 1625 304.211 1623.024 297.814 C 1619.703 287.063, 1612.811 280.777, 1600.500 277.271 C 1594.380 275.529, 1568.673 274.786, 1557.500 276.030 M 1691.539 276.112 C 1671.928 278.969, 1658.447 287.906, 1651.456 302.684 C 1643.973 318.502, 1643.030 348.198, 1649.447 365.957 C 1654.792 380.750, 1666.734 390.739, 1685 395.697 C 1694.703 398.331, 1721.797 398.046, 1735.948 395.162 C 1741.694 393.991, 1746.990 392.439, 1747.715 391.713 L 1749.035 390.394 1746.414 379.197 C 1744.772 372.181, 1743.318 368, 1742.522 368 C 1741.823 368, 1735.682 368.947, 1728.875 370.105 C 1714.080 372.622, 1700.509 372.410, 1695 369.576 C 1683.887 363.860, 1679.024 353.791, 1679.024 336.500 C 1679.024 320.215, 1683.453 309.988, 1692.778 304.744 L 1698.056 301.775 1706.278 301.306 C 1710.800 301.048, 1716.300 301.229, 1718.500 301.708 L 1722.500 302.579 1723 308.040 L 1723.500 313.500 1736 313.500 L 1748.500 313.500 1748.500 297.065 L 1748.500 280.631 1743.500 279.337 C 1728.874 275.553, 1705.386 274.095, 1691.539 276.112 M 1939.569 276.955 C 1917.370 281.799, 1904.533 294.097, 1899.334 315.500 C 1898.148 320.383, 1897.634 326.734, 1897.634 336.500 C 1897.634 370.269, 1909.131 387.557, 1936.686 395.223 L 1944.500 397.397 1963.500 397.339 L 1982.500 397.280 1993 395.077 C 1998.775 393.865, 2003.922 392.457, 2004.439 391.948 C 2005.309 391.090, 2002.682 369.348, 2001.574 368.240 C 2001.327 367.994, 1996.710 368.627, 1991.313 369.646 C 1984.699 370.896, 1976.936 371.500, 1967.500 371.500 L 1953.500 371.500 1947.994 368.917 C 1942.088 366.146, 1936.827 361.500, 1934.499 356.999 C 1932.186 352.524, 1930.952 345.763, 1932.180 344.283 C 1933.012 343.281, 1941.415 343, 1970.563 343 C 1999.320 343, 2008.068 342.713, 2008.691 341.750 C 2010.062 339.632, 2010.298 314.190, 2009.007 307.630 C 2006.013 292.412, 1996.459 282.164, 1981.168 277.769 C 1970.991 274.845, 1951.032 274.454, 1939.569 276.955 M 1240.750 278.080 C 1238.713 279.266, 1238.355 284.955, 1240.200 286.800 C 1240.860 287.460, 1242.915 288, 1244.766 288 C 1250.019 288, 1251.575 289.428, 1254.824 297.231 C 1256.489 301.229, 1266.660 325.335, 1277.426 350.800 C 1288.191 376.265, 1297 397.792, 1297 398.639 C 1297 402.018, 1287.898 418.897, 1283.345 423.961 C 1276.633 431.426, 1270.785 433.978, 1260.357 433.990 C 1251.689 434.001, 1251 434.403, 1251 439.459 C 1251 443.522, 1253.505 444.500, 1263.904 444.500 L 1273.500 444.500 1280 441.417 C 1288.039 437.605, 1295.273 430.403, 1300.798 420.713 C 1303.060 416.746, 1311.520 396.850, 1319.599 376.500 C 1327.677 356.150, 1338.856 328.025, 1344.439 314 L 1354.592 288.500 1358.046 288.230 C 1359.946 288.082, 1362.513 287.736, 1363.750 287.461 L 1366 286.962 1366 283.181 C 1366 281.101, 1365.460 278.860, 1364.800 278.200 C 1363.256 276.656, 1325.787 276.509, 1322.934 278.035 C 1320.992 279.075, 1320.349 283.139, 1321.607 286.418 L 1322.214 288 1331.607 288 C 1336.773 288, 1341 288.327, 1341 288.728 C 1341 290.910, 1305.539 383.926, 1304.955 383.276 C 1303.873 382.073, 1266.707 291.695, 1266.597 290 L 1266.500 288.500 1276 288 L 1285.500 287.500 1285.815 283.099 C 1286.018 280.255, 1285.665 278.403, 1284.815 277.864 C 1282.904 276.652, 1242.865 276.848, 1240.750 278.080 M 1173.045 286.029 C 1156.906 289.422, 1146.197 301.718, 1142.903 320.638 L 1141.755 327.230 1143.127 328.100 C 1143.882 328.578, 1160.105 328.976, 1179.179 328.985 L 1213.857 329 1215.429 327.429 C 1217.515 325.342, 1217.552 312.221, 1215.490 305.279 C 1213.318 297.966, 1206.503 290.713, 1199.208 287.952 C 1192.718 285.495, 1180.022 284.562, 1173.045 286.029 M 903.286 287.396 C 886.091 292.995, 878.084 306.274, 876.394 332 C 875.117 351.419, 880.869 370.314, 890.687 378.956 C 897.316 384.791, 906.277 387.375, 917.948 386.817 L 926.754 386.396 933.420 383.114 C 947.497 376.184, 954.334 360.904, 954.278 336.500 C 954.222 311.813, 947.499 296.817, 933.372 289.862 L 926.658 286.557 917.079 286.290 C 910.975 286.120, 905.971 286.521, 903.286 287.396 M 1948.849 300.326 C 1942.969 301.988, 1939.828 304.047, 1936.482 308.434 C 1933.698 312.085, 1930.639 320.607, 1931.572 322.116 C 1932.431 323.506, 1976.732 323.243, 1977.597 321.843 C 1978.810 319.881, 1978.265 312.411, 1976.687 309.379 C 1975.009 306.152, 1971.628 302.832, 1968.244 301.087 C 1964.730 299.274, 1954.050 298.855, 1948.849 300.326 M 410.579 338.255 C 396.773 359.055, 387.967 370.145, 374.965 383.111 L 362.318 395.723 367.909 399.085 C 370.984 400.934, 383.625 408.411, 396 415.701 L 418.500 428.954 418.767 402.907 C 418.913 388.581, 418.913 365.489, 418.767 351.591 L 418.500 326.323 410.579 338.255 M 1566.326 344.044 C 1556.818 345.924, 1552.997 350.128, 1553.004 358.700 C 1553.011 368.482, 1559.218 373.369, 1571.491 373.260 C 1578.374 373.199, 1587.290 370.702, 1591.426 367.678 L 1593.233 366.357 1593.074 355.514 C 1592.986 349.551, 1592.683 344.295, 1592.398 343.836 C 1591.747 342.782, 1571.908 342.941, 1566.326 344.044 M 218.667 353.667 C 217.455 354.878, 217.966 357.870, 220.982 367.238 C 226.492 384.350, 238.060 400.864, 252.151 411.729 C 256.559 415.128, 386.961 490.830, 399.210 497.101 C 401.251 498.145, 404.176 498.998, 405.710 498.996 C 409.479 498.991, 414.582 495.727, 417.025 491.759 L 419.031 488.500 418.765 479.126 L 418.500 469.753 404 461.245 C 396.025 456.566, 373.525 443.409, 354 432.008 L 318.500 411.279 310.702 410.648 C 306.414 410.301, 299.439 408.863, 295.202 407.451 C 279.714 402.290, 269.191 394.149, 248.802 371.554 C 243.370 365.534, 236.647 358.896, 233.862 356.804 L 228.799 353 224.066 353 C 221.463 353, 219.033 353.300, 218.667 353.667" stroke="none" fill="#ffffff" fill-rule="evenodd"/><path d="M 499.635 201.100 C 488.439 202.735, 474.441 207.103, 463.500 212.376 C 445.714 220.948, 431.975 232.450, 416.767 251.500 C 412.377 257, 408.036 262.400, 407.122 263.500 C 406.208 264.600, 396.515 279, 385.583 295.500 C 361.980 331.123, 353.792 342.044, 342.698 352.694 C 332.361 362.619, 325.543 366.196, 316.756 366.308 C 307.203 366.430, 302.422 363.664, 290.500 351.120 C 261.603 320.714, 254.854 315.230, 241.048 310.944 C 210.243 301.379, 180.458 317.538, 155.812 357.188 C 144.890 374.760, 131.723 405.704, 125.046 429.495 L 121.960 440.490 123.022 445.608 C 126.392 461.841, 144.452 468.699, 157.994 458.889 C 162.779 455.423, 164.885 451.440, 168.512 439 C 174.666 417.888, 187.219 390.250, 197.827 374.458 C 207.695 359.766, 216.084 353, 224.430 353 L 228.799 353 233.862 356.804 C 236.647 358.896, 243.370 365.534, 248.802 371.554 C 269.217 394.177, 279.489 402.117, 295.500 407.648 L 303.500 410.412 316 410.442 L 328.500 410.472 335.975 408.139 C 350.155 403.713, 360.168 397.549, 372.976 385.360 C 387.347 371.684, 399.368 355.901, 421.236 322 C 440.699 291.825, 448.849 281.051, 462.460 267.500 C 472.702 257.303, 479.352 253.014, 491.239 248.935 C 509.983 242.503, 530.443 242.374, 553.839 248.539 C 565.392 251.583, 568.178 251.596, 574.541 248.633 C 580.865 245.688, 584.547 241.365, 586.525 234.563 C 589.156 225.510, 585.764 215.944, 578 210.524 C 573.995 207.728, 559.883 203.763, 546 201.534 C 535.693 199.878, 509.669 199.635, 499.635 201.100 M 657.402 236.395 C 657.108 237.162, 657.009 239.524, 657.183 241.645 L 657.500 245.500 664.971 245.798 C 669.391 245.975, 672.754 246.587, 673.206 247.298 C 673.626 247.959, 673.969 278.650, 673.969 315.500 C 673.969 352.350, 673.626 383.041, 673.206 383.702 C 672.754 384.413, 669.391 385.025, 664.971 385.202 L 657.500 385.500 657.195 390.250 L 656.890 395 680.500 395 L 704.110 395 703.805 390.250 L 703.500 385.500 696.045 385.202 C 691.944 385.038, 688.007 384.421, 687.295 383.830 C 686.261 382.972, 686 370.662, 686 322.878 C 686 289.945, 686.357 263, 686.793 263 C 687.230 263, 699.005 288.538, 712.961 319.750 C 726.917 350.962, 740.259 380.663, 742.610 385.750 L 746.884 395 751.425 395 L 755.966 395 758.345 390.250 C 759.654 387.637, 772.774 358.050, 787.502 324.500 C 802.229 290.950, 814.670 263.069, 815.147 262.542 C 815.639 262, 815.904 288.238, 815.758 323.042 L 815.500 384.500 807.500 385 L 799.500 385.500 799.195 390.250 L 798.890 395 822.500 395 L 846.110 395 845.805 390.250 L 845.500 385.500 837.500 385 L 829.500 384.500 829.500 315.500 L 829.500 246.500 835.500 246.243 C 838.800 246.101, 842.537 245.749, 843.803 245.460 L 846.107 244.935 845.803 240.218 L 845.500 235.500 830.500 235.251 C 822.250 235.114, 814.920 235.376, 814.212 235.834 C 813.503 236.291, 799.717 266.613, 783.576 303.217 C 767.435 339.820, 753.779 370.573, 753.229 371.556 L 752.229 373.343 750.730 370.421 C 749.905 368.815, 736.101 338.250, 720.053 302.500 C 704.006 266.750, 690.143 236.938, 689.247 236.250 C 686.785 234.361, 658.132 234.491, 657.402 236.395 M 900.402 276.486 C 882.694 280.338, 870.847 292.659, 865.293 313 C 862.782 322.193, 862.803 350.673, 865.326 360 C 871.778 383.848, 885.719 395.632, 909.791 397.586 C 939.059 399.961, 959.922 385.203, 965.492 358.185 C 967.476 348.562, 967.478 323.941, 965.496 314.500 C 962.338 299.461, 952.972 286.069, 941.783 280.595 C 931.049 275.343, 913.612 273.612, 900.402 276.486 M 1046.788 276.485 C 1039.617 278.307, 1028.108 284.012, 1021.231 289.154 C 1018.332 291.321, 1015.520 292.821, 1014.981 292.488 C 1014.441 292.155, 1014 288.807, 1014 285.048 C 1014 279.739, 1013.647 278.079, 1012.418 277.607 C 1011.548 277.273, 1005.735 277, 999.500 277 C 993.265 277, 987.452 277.273, 986.582 277.607 C 985.440 278.045, 985 279.564, 985 283.065 L 985 287.916 992.750 288.208 L 1000.500 288.500 1000.500 336.500 L 1000.500 384.500 993 385 L 985.500 385.500 985.194 390.269 L 984.889 395.038 1007.694 394.769 L 1030.500 394.500 1030.500 390 L 1030.500 385.500 1023.500 385.217 C 1018.394 385.010, 1016.162 384.485, 1015.250 383.276 C 1013.643 381.145, 1013.432 306.930, 1015.024 303.955 C 1016.398 301.387, 1026.784 294.426, 1034.378 290.983 C 1051.538 283.202, 1069.953 284.896, 1078.106 295.004 C 1079.657 296.927, 1081.623 301.233, 1082.475 304.573 L 1084.025 310.646 1083.763 347.573 L 1083.500 384.500 1075.759 384.792 L 1068.017 385.084 1067.426 387.440 C 1067.100 388.736, 1066.984 390.855, 1067.167 392.148 L 1067.500 394.500 1090.500 394.500 L 1113.500 394.500 1113.500 390 L 1113.500 385.500 1105.500 385 L 1097.500 384.500 1096.932 343.500 C 1096.348 301.356, 1096.132 299.073, 1091.973 291 C 1089.394 285.995, 1083.288 280.447, 1077.594 277.934 C 1071.198 275.111, 1055.161 274.356, 1046.788 276.485 M 1168.509 276.510 C 1148.905 280.584, 1136.422 292.909, 1130.858 313.686 C 1127.981 324.433, 1127.750 346.049, 1130.391 357.500 C 1135.171 378.220, 1147.739 391.134, 1168 396.141 C 1179.396 398.957, 1214.572 397.264, 1223.736 393.458 L 1226.973 392.113 1226.359 388.807 C 1226.021 386.988, 1225.211 384.925, 1224.558 384.221 L 1223.371 382.943 1216.436 384.672 C 1206.462 387.159, 1177.796 387.211, 1169.869 384.757 C 1153.987 379.840, 1144.224 366.016, 1142.343 345.785 C 1141.838 340.350, 1142.005 338.610, 1143.097 337.919 C 1143.869 337.430, 1163.266 337.024, 1186.203 337.015 L 1227.906 337 1228.947 333.250 C 1230.507 327.633, 1230.250 309.203, 1228.531 303.432 C 1224.820 290.967, 1215.922 281.702, 1204 277.887 C 1195.464 275.157, 1178.240 274.488, 1168.509 276.510 M 1240.750 278.080 C 1238.713 279.266, 1238.355 284.955, 1240.200 286.800 C 1240.860 287.460, 1242.915 288, 1244.766 288 C 1250.019 288, 1251.575 289.428, 1254.824 297.231 C 1256.489 301.229, 1266.660 325.335, 1277.426 350.800 C 1288.191 376.265, 1297 397.792, 1297 398.639 C 1297 402.018, 1287.898 418.897, 1283.345 423.961 C 1276.633 431.426, 1270.785 433.978, 1260.357 433.990 C 1251.689 434.001, 1251 434.403, 1251 439.459 C 1251 443.522, 1253.505 444.500, 1263.904 444.500 L 1273.500 444.500 1280 441.417 C 1288.039 437.605, 1295.273 430.403, 1300.798 420.713 C 1303.060 416.746, 1311.520 396.850, 1319.599 376.500 C 1327.677 356.150, 1338.856 328.025, 1344.439 314 L 1354.592 288.500 1358.046 288.230 C 1359.946 288.082, 1362.513 287.736, 1363.750 287.461 L 1366 286.962 1366 283.181 C 1366 281.101, 1365.460 278.860, 1364.800 278.200 C 1363.256 276.656, 1325.787 276.509, 1322.934 278.035 C 1320.992 279.075, 1320.349 283.139, 1321.607 286.418 L 1322.214 288 1331.607 288 C 1336.773 288, 1341 288.327, 1341 288.728 C 1341 290.910, 1305.539 383.926, 1304.955 383.276 C 1303.873 382.073, 1266.707 291.695, 1266.597 290 L 1266.500 288.500 1276 288 L 1285.500 287.500 1285.815 283.099 C 1286.018 280.255, 1285.665 278.403, 1284.815 277.864 C 1282.904 276.652, 1242.865 276.848, 1240.750 278.080 M 1173.045 286.029 C 1156.906 289.422, 1146.197 301.718, 1142.903 320.638 L 1141.755 327.230 1143.127 328.100 C 1143.882 328.578, 1160.105 328.976, 1179.179 328.985 L 1213.857 329 1215.429 327.429 C 1217.515 325.342, 1217.552 312.221, 1215.490 305.279 C 1213.318 297.966, 1206.503 290.713, 1199.208 287.952 C 1192.718 285.495, 1180.022 284.562, 1173.045 286.029 M 903.286 287.396 C 886.091 292.995, 878.084 306.274, 876.394 332 C 875.117 351.419, 880.869 370.314, 890.687 378.956 C 897.316 384.791, 906.277 387.375, 917.948 386.817 L 926.754 386.396 933.420 383.114 C 947.497 376.184, 954.334 360.904, 954.278 336.500 C 954.222 311.813, 947.499 296.817, 933.372 289.862 L 926.658 286.557 917.079 286.290 C 910.975 286.120, 905.971 286.521, 903.286 287.396" stroke="none" fill="#6cbd49" fill-rule="evenodd"/><path d="M 1757.433 232.314 C 1757.156 233.037, 1757.057 238.550, 1757.214 244.564 L 1757.500 255.500 1763.743 255.798 L 1769.986 256.095 1770.520 258.298 C 1770.813 259.509, 1770.929 285.025, 1770.777 315 L 1770.500 369.500 1764 370 L 1757.500 370.500 1757.500 382.500 L 1757.500 394.500 1785.500 394.500 L 1813.500 394.500 1813.500 382.500 L 1813.500 370.500 1808 370 L 1802.500 369.500 1802.235 339.774 L 1801.970 310.048 1805.801 307.513 C 1812.635 302.991, 1820.671 300.765, 1828.699 301.170 C 1837.242 301.602, 1840.399 303.463, 1843.765 310.052 L 1846.031 314.486 1845.765 341.993 L 1845.500 369.500 1840.250 369.802 L 1835 370.105 1835 382.568 L 1835 395.032 1862.750 394.766 L 1890.500 394.500 1890.500 382.500 L 1890.500 370.500 1884 370 L 1877.500 369.500 1876.974 336 L 1876.448 302.500 1874.600 297.500 C 1869.056 282.502, 1858.901 276, 1841.023 276 C 1827.994 276, 1818.656 279.326, 1808.332 287.642 C 1806.039 289.489, 1803.677 291, 1803.082 291 C 1802.342 291, 1801.998 284.600, 1801.995 270.750 C 1801.992 259.613, 1801.699 246.113, 1801.344 240.750 L 1800.698 231 1779.318 231 C 1762.578 231, 1757.828 231.285, 1757.433 232.314 M 1437.500 234.119 C 1410.869 237.415, 1392.752 251.534, 1385.044 275 C 1378.227 295.754, 1378.256 332.411, 1385.107 354 C 1391.786 375.047, 1406.346 388.876, 1428 394.740 C 1436.090 396.930, 1470.423 397.242, 1481.500 395.226 C 1494.417 392.874, 1507.489 389.772, 1508.750 388.759 C 1509.665 388.024, 1510 382.999, 1510 369.985 L 1510 352.214 1508.418 351.607 C 1506.362 350.818, 1488.638 350.818, 1486.582 351.607 C 1485.327 352.088, 1485 353.821, 1485 359.985 C 1485 364.997, 1484.556 368.113, 1483.750 368.763 C 1482.389 369.861, 1472.404 371.544, 1461.783 372.466 C 1448.865 373.587, 1436.747 370.107, 1428.568 362.925 C 1424.023 358.935, 1418.616 348.044, 1416.319 338.254 C 1413.801 327.519, 1413.810 300.382, 1416.335 291 C 1423.364 264.883, 1438.303 255.646, 1468.257 258.895 C 1474.417 259.563, 1480.591 260.652, 1481.978 261.315 L 1484.500 262.521 1484.790 270.760 L 1485.081 279 1497.540 279 L 1510 279 1510 260.539 L 1510 242.077 1504.750 240.512 C 1484.494 234.474, 1456.295 231.793, 1437.500 234.119 M 508.660 263.048 C 505.998 263.494, 500.710 264.804, 496.910 265.959 L 490 268.058 490 359.578 L 490 451.099 488.451 454.094 C 486.791 457.305, 481.612 460.990, 478.750 460.996 L 477 461 477 478.545 L 477 496.091 480.750 495.478 C 489.093 494.115, 490.740 493.651, 496.500 491.048 C 507.924 485.883, 518.329 474.043, 522.105 461.909 L 524 455.822 524 358.911 L 524 262 518.750 262.118 C 515.862 262.182, 511.322 262.601, 508.660 263.048 M 1948.630 276.026 C 1921.199 279.347, 1906.613 290.802, 1900.276 314 C 1898.920 318.964, 1898.500 324.281, 1898.500 336.500 C 1898.500 359.586, 1902.151 371.261, 1912.661 381.785 C 1923.436 392.574, 1938.052 397.004, 1962.838 396.994 C 1980.591 396.987, 2002.719 393.882, 2004.400 391.162 C 2004.660 390.742, 2004.095 385.471, 2003.146 379.449 C 2001.837 371.152, 2001.065 368.533, 1999.959 368.636 C 1999.157 368.712, 1994.225 369.546, 1989 370.492 C 1983.720 371.447, 1974.170 372.241, 1967.500 372.279 L 1955.500 372.348 1949.581 370.039 C 1941.556 366.908, 1935.610 361.245, 1932.987 354.236 C 1931.839 351.168, 1931.035 347.498, 1931.200 346.079 L 1931.500 343.500 1970 343 L 2008.500 342.500 2008.500 323.500 L 2008.500 304.500 2005.865 298.880 C 2002.683 292.093, 1997.138 285.751, 1991.497 282.446 C 1982.666 277.270, 1962.858 274.304, 1948.630 276.026 M 1556.500 276.673 C 1549.029 277.602, 1532.331 280.165, 1530.750 280.625 L 1529 281.135 1529 297.067 L 1529 313 1541.500 313 L 1554 313 1554 308.035 C 1554 304.150, 1554.421 302.845, 1555.934 302.035 C 1556.998 301.466, 1563.203 301, 1569.722 301 L 1581.576 301 1586.038 303.250 C 1588.942 304.714, 1591.111 306.722, 1592.248 309 C 1594.283 313.073, 1594.596 322.274, 1592.750 323.766 C 1592.063 324.321, 1583.175 324.998, 1573 325.268 C 1548.049 325.932, 1538.796 328.872, 1529.652 339.042 C 1524.042 345.282, 1522 351.408, 1522 362 C 1522 377.292, 1527.644 387.238, 1539.686 393.166 L 1546.458 396.500 1558.979 396.465 L 1571.500 396.429 1576.994 394.133 C 1580.016 392.870, 1584.630 390.298, 1587.247 388.418 C 1589.864 386.538, 1592.429 385, 1592.948 385 C 1593.466 385, 1594.028 387.137, 1594.195 389.750 L 1594.500 394.500 1616.500 394.500 L 1638.500 394.500 1638.500 382.500 L 1638.500 370.500 1632 370 L 1625.500 369.500 1624.922 336 L 1624.344 302.500 1622.677 297.396 C 1621.760 294.589, 1619.152 290.183, 1616.883 287.604 C 1608.819 278.443, 1599.976 275.968, 1576 276.165 C 1566.925 276.239, 1558.150 276.468, 1556.500 276.673 M 1685.500 277.598 C 1658.523 283.580, 1645.702 302.598, 1645.791 336.500 C 1645.851 358.938, 1650.206 372.123, 1660.939 382.361 C 1673.005 393.869, 1686.408 397.560, 1713 396.697 C 1727.247 396.235, 1733.664 395.413, 1745.750 392.504 C 1747.004 392.202, 1748.003 391.196, 1748.007 390.231 C 1748.017 387.762, 1743.857 369.646, 1743.077 368.763 C 1742.719 368.358, 1737.718 368.970, 1731.963 370.124 C 1725.601 371.399, 1717.384 372.249, 1711 372.293 L 1700.500 372.366 1695.382 370.116 C 1685.699 365.861, 1680.835 358.245, 1678.775 344.112 C 1677.887 338.021, 1677.896 334.361, 1678.813 328.464 C 1681.897 308.625, 1690.610 300.825, 1709.644 300.864 C 1722.587 300.891, 1722.836 301.009, 1723.200 307.301 L 1723.500 312.500 1736 312.500 L 1748.500 312.500 1748.776 297.299 L 1749.052 282.098 1747.276 281.162 C 1739.037 276.820, 1699.337 274.530, 1685.500 277.598 M 1946.748 300.427 C 1944.684 301.163, 1941.468 302.931, 1939.600 304.356 C 1934.068 308.575, 1929.038 321.144, 1932.105 323.086 C 1932.872 323.572, 1943.030 323.976, 1954.679 323.985 L 1975.857 324 1977.429 322.429 C 1980.621 319.236, 1978.181 308.074, 1973.355 303.788 C 1968.123 299.142, 1954.995 297.484, 1946.748 300.427 M 447.913 306.307 C 445.390 309.713, 437.853 320.703, 431.163 330.730 L 419 348.960 419 388.980 C 419 410.991, 418.663 428.991, 418.250 428.981 C 417.837 428.971, 408.061 423.388, 396.525 416.576 L 375.551 404.190 371.025 407.923 C 364.070 413.661, 357.765 417.711, 349.987 421.439 L 342.888 424.841 356.194 432.688 C 363.512 437.004, 380.631 447.053, 394.236 455.018 L 418.972 469.500 418.986 479.300 C 418.996 486.214, 418.544 489.981, 417.451 492.094 C 414.210 498.361, 405.429 500.822, 398.700 497.348 C 381.903 488.675, 254.995 414.579, 249.881 410.458 C 243.033 404.941, 236.537 397.791, 231.294 390 C 227.347 384.134, 222 373.485, 222 371.489 L 222 369.921 220.396 371.211 C 213.356 376.871, 207.114 383.579, 202.318 390.640 L 196.665 398.962 198.582 402.549 C 205.211 414.945, 223.675 434.670, 236.701 443.270 C 240.440 445.739, 275.675 466.240, 315 488.829 C 391.415 532.723, 392.028 533.022, 405.460 532.976 C 418.846 532.929, 428.664 529.015, 438.560 519.781 C 445.805 513.020, 450.523 504.742, 452.531 495.270 L 453.965 488.500 453.864 397 C 453.809 346.675, 453.479 304.288, 453.132 302.807 L 452.500 300.114 447.913 306.307 M 279.020 338.750 C 284.737 344.938, 289.593 350, 289.813 350 C 290.443 350, 276.586 334.877, 272.403 331 C 270.326 329.075, 273.304 332.563, 279.020 338.750 M 1562.655 344.445 C 1548.289 349.619, 1548.877 368.906, 1563.525 373.007 C 1572.949 375.646, 1592.241 370.891, 1593.560 365.606 C 1593.848 364.448, 1593.953 359, 1593.792 353.500 L 1593.500 343.500 1580 343.280 C 1570.524 343.125, 1565.354 343.473, 1562.655 344.445" stroke="none" fill="#166bb3" fill-rule="evenodd"/></svg>